<svg width="1338" height="1338" viewBox="0 0 1338 1338" fill="none" xmlns="http://www.w3.org/2000/svg">
    <path d="M156.153 13.7225L237.119 65.9273L237.176 18.4108L156.153 -33.8511L75.1297 18.4108L75.1868 65.9273L156.153 13.7225ZM156.153 73.8183L237.119 126.023L237.176 78.5067L156.153 26.244L75.1297 78.5067L75.1868 126.023L156.153 73.8183ZM26.4724 44.9988H10.2908V126.022H26.4724V44.9988ZM58.8987 44.9988H42.7171V126.022H58.8987V44.9988Z" stroke="#B9B9C5" stroke-linejoin="bevel"/>
    <path d="M358.737 44.9988V126.022H439.818V44.9988H399.277V-35.8535L318.14 16.2372L237.174 -35.9677V44.9988H358.737ZM75.1358 -75.7629L-6.00195 -128.254L-86.9685 -75.82L-37.2219 -43.7422L-86.9685 -11.5503L-6.00195 40.6545L75.1358 -11.4932L25.2751 -43.7422L75.1358 -75.7629ZM723.427 13.7225L804.391 65.9273L804.505 18.4108L723.427 -33.8511L642.404 18.4108L642.461 65.9273L723.427 13.7225ZM723.427 73.8183L804.391 126.023L804.505 78.5067L723.427 26.244L642.404 78.5067L642.461 126.023L723.427 73.8183ZM496.487 44.9988H480.306V126.022H496.487V44.9988ZM528.908 44.9988H512.727V126.022H528.908V44.9988ZM561.329 44.9988H545.148V126.022H561.329V44.9988ZM593.756 44.9988H577.575V126.022H593.756V44.9988ZM626.169 44.9988H609.987V126.022H626.169V44.9988ZM926.082 44.9988V126.022H1007.11V44.9988H966.564V-35.8535L885.424 16.2372L804.52 -35.9677V44.9988H926.082V44.9988ZM642.41 -75.7629L561.272 -128.254L480.306 -75.82L530.052 -43.7422L480.306 -11.5503L561.272 40.6545L642.41 -11.4932L592.549 -43.7422L642.41 -75.7629V-75.7629ZM1290.77 13.7225L1371.73 65.9273L1371.79 18.4108L1290.77 -33.8511L1209.69 18.4108L1209.75 65.9273L1290.77 13.7225ZM1290.77 73.8183L1371.73 126.023L1371.79 78.5067L1290.77 26.244L1209.69 78.5067L1209.75 126.023L1290.77 73.8183ZM1063.82 44.9988H1047.64V126.022H1063.82V44.9988V44.9988ZM1096.25 44.9988H1080.06V126.022H1096.25V44.9988V44.9988ZM1128.66 44.9988H1112.48V126.022H1128.66V44.9988V44.9988ZM1161.03 44.9988H1144.85V126.022H1161.03V44.9988V44.9988ZM1193.45 44.9988H1177.26V126.022H1193.45V44.9988V44.9988ZM1209.69 -75.7629L1128.55 -128.254L1047.64 -75.82L1097.33 -43.7422L1047.64 -11.5503L1128.55 40.6545L1209.69 -11.4932L1159.88 -43.7422L1209.69 -75.7629V-75.7629ZM-19.6666 557.043L7.3225 539.66L34.3116 557.043L34.3687 541.203L7.3225 523.821L-19.6666 541.203L-46.7128 523.821L-73.7011 541.203L-100.689 523.821L-127.736 541.203L-127.679 557.043L-100.689 539.66L-73.7011 557.043L-46.7128 539.66L-19.6666 557.043V557.043ZM-19.6666 597.409L7.3225 580.027L34.3116 597.409L34.3687 581.57L7.3225 564.188L-19.6666 581.57L-46.7128 564.188L-73.7011 581.57L-100.689 564.188L-127.736 581.57L-127.679 597.409L-100.689 580.027L-73.7011 597.409L-46.7128 580.027L-19.6666 597.409V597.409ZM-46.4867 421.354L-127.224 369.264H-127.453V450.345H34.651V369.264H34.5369L-46.4867 421.354ZM25.0438 298.19L-0.687238 291.957L13.2073 269.086L12.3495 268.228L-10.5221 282.008L-16.6405 256.22H-17.8986L-24.1312 281.951L-46.7173 268.057L-47.6322 268.914L-33.7947 291.786L-59.5828 297.904V299.277L-33.8518 305.509L-47.7463 328.095L-46.8886 329.009L-24.017 315.173L-17.8986 340.96H-16.6405L-10.4079 315.229L12.1783 329.124L13.0931 328.267L-0.744317 305.394L25.0438 299.277V298.19ZM5.03237 190.236L-8.51887 186.919L-1.20021 175.083L-1.65763 174.626L-13.5512 181.887L-16.7531 168.336H-17.1535L-20.4125 181.83L-32.249 174.569L-32.7635 175.026L-25.5019 186.919L-38.9961 190.122V190.636L-25.4448 193.895L-32.7635 205.789L-32.3061 206.246L-20.4132 198.985L-17.2113 212.536H-16.5248L-13.2658 198.985L-1.42931 206.303C-1.26275 206.165 -1.10958 206.012 -0.971881 205.846L-8.17638 193.953L5.31778 190.75L5.0316 190.236H5.03237Z" stroke="#B9B9C5" stroke-linejoin="bevel"/>
    <path d="M62.5588 232.263L49.0646 228.946L56.327 217.11L55.8696 216.653L44.0338 223.914L40.7748 210.363H40.0312L36.7722 223.857L24.8794 216.595L24.422 217.053L31.6836 228.889L18.1323 232.148V232.777L31.6836 236.036L24.4791 247.815L24.9365 248.273L36.8301 241.011L40.032 254.563H40.6607L43.9775 241.011L55.814 248.33L56.2714 247.873L49.0098 236.379L62.5611 233.177V232.263H62.5588ZM115.668 364.575L196.634 416.78L196.691 369.264L115.668 316.945L34.645 369.264L34.7021 416.78L115.668 364.575V364.575ZM277.771 662.08L358.737 714.342L358.794 666.768L277.771 614.507L196.691 666.768L196.805 714.342L277.771 662.08ZM277.771 722.233L358.737 774.434L358.794 726.921L277.771 674.602L196.691 726.921L196.805 774.434L277.771 722.233V722.233ZM301.622 183.66V126.08H220.598V235.751H220.941L301.507 183.546L301.622 183.66V183.66Z" stroke="#B9B9C5" stroke-linejoin="bevel"/>
    <path d="M301.622 183.658L301.507 183.544L220.941 235.749L220.598 235.978L301.507 288.183L382.644 236.035L301.622 183.658V183.658ZM50.8265 693.414H34.6449V774.434H50.8265V693.414ZM83.2528 693.414H67.0712V774.434H83.2528V693.414Z" stroke="#B9B9C5" stroke-linejoin="bevel"/>
    <path d="M115.665 693.414H99.4839V774.434H115.665V693.414Z" stroke="#B9B9C5" stroke-linejoin="bevel"/>
    <path d="M148.086 693.414H131.905V774.434H148.086V693.414Z" stroke="#B9B9C5" stroke-linejoin="bevel"/>
    <path d="M180.46 693.414H164.279V774.434H180.46V693.414Z" stroke="#B9B9C5" stroke-linejoin="bevel"/>
    <path d="M439.821 466.468V450.287H334.553L277.774 393.507L220.48 450.801L277.774 508.095L286.98 498.889H439.821V482.65H303.162L319.401 466.468H439.821ZM439.88 515.071H277.777V531.253H439.88V515.071V515.071ZM547.664 557.043L574.653 539.66L601.642 557.043V541.204L574.653 523.821L547.607 541.204L520.619 523.821L493.573 541.204L466.584 523.821L439.538 541.204L439.595 557.043L466.584 539.66L493.573 557.043H493.63L520.619 539.66L547.607 557.043H547.664V557.043ZM547.664 597.409L574.653 580.027L601.642 597.409V581.57L574.653 564.189L547.607 581.57L520.619 564.189L493.573 581.57L466.584 564.189L439.538 581.57L439.595 597.409L466.584 580.027L493.573 597.409H493.63L520.619 580.027L547.607 597.409H547.664V597.409ZM480.366 693.414V774.434H561.39V693.414H520.907V612.505L439.769 664.653L358.803 612.448V693.414H480.366V693.414ZM439.822 369.21V369.15L439.703 369.21H439.822Z" stroke="#B9B9C5" stroke-linejoin="bevel"/>
    <path d="M277.77 288.185H196.691V304.365H277.77V320.605H196.691V336.786H277.77V353.026H196.691V369.207H277.77H278.057L277.77 369.036L358.908 316.888L439.818 369.15V288.185H277.77ZM196.691 572.652L115.554 520.16L34.6449 572.537L84.3336 604.615L34.6449 636.864L115.554 689.011L196.692 636.922L146.888 604.672L196.692 572.652H196.691ZM115.674 416.779H115.617L61.4102 451.888L61.1819 452.002L170.166 452.059L115.674 416.779V416.779ZM520.791 421.354L440.054 369.264H439.825V450.345H601.929V369.264H601.815L520.791 421.354V421.354ZM592.379 298.19L566.591 291.957L580.486 269.086L579.628 268.228L556.756 282.008L550.638 256.22H549.38L543.204 282.122L520.619 268.228L519.761 269.086L533.542 291.957L507.753 298.076V299.277L533.542 305.509L519.761 327.866L520.676 328.781L543.261 314.944L549.38 340.732H550.638L556.928 315.001L579.457 328.895L580.372 328.038L566.533 305.166L592.321 299.048L592.379 298.19V298.19ZM572.31 190.236L558.758 186.919L566.077 175.083L565.62 174.626L553.726 181.887L550.525 168.336H549.838L546.579 181.83L534.743 174.569L534.286 175.026L541.547 186.919L527.995 190.122V190.636L541.49 193.895L534.228 205.789L534.685 206.246L546.522 198.985L549.781 212.536H550.41L553.669 198.985L565.563 206.303L566.02 205.846L558.758 193.953L572.31 190.75V190.236V190.236ZM514.616 232.263L501.065 228.946L508.384 217.11L507.926 216.653L496.033 223.914L492.831 210.363H492.202L488.885 223.857L477.049 216.595L476.592 217.053L483.854 228.889L470.302 232.148V232.777L483.797 236.036L476.649 247.815L477.107 248.273L489 241.011L492.202 254.563H492.831L496.148 241.011L507.983 248.33L508.441 247.872L501.179 236.379L514.73 233.177L514.616 232.263V232.263ZM629.893 232.263L616.342 228.946L623.66 217.11L623.203 216.653L611.309 223.914L608.107 210.363H607.421L604.162 223.857L592.326 216.595L591.869 217.053L599.073 228.889L585.579 232.148V232.777L599.13 236.036L591.754 247.815L592.211 248.273L604.105 241.011L607.307 254.563H607.993L611.252 241.011L623.089 248.33L623.546 247.872L616.342 236.379L629.836 233.177L629.893 232.263V232.263Z" stroke="#B9B9C5" stroke-linejoin="bevel"/>
    <path d="M143.999 168.284L115.656 139.941L87.3141 168.284L115.656 196.626L143.999 168.284V168.284ZM682.952 364.575L763.916 416.78L764.03 369.264L682.952 316.945L601.929 369.264L601.986 416.78L682.952 364.575V364.575ZM845.056 662.08L926.021 714.342L926.082 666.768L845.056 614.507L764.03 666.768L764.091 714.342L845.056 662.08V662.08ZM845.056 722.233L926.021 774.434L926.082 726.921L845.056 674.602L764.03 726.921L764.091 774.434L845.056 722.233V722.233ZM868.901 183.66V126.08H787.875V235.751H788.218L868.84 183.546L868.901 183.66V183.66Z" stroke="#B9B9C5" stroke-linejoin="bevel"/>
    <path d="M868.901 183.658L868.84 183.544L788.217 235.749L787.875 235.978L868.84 288.183L949.98 236.035L868.901 183.658V183.658Z" stroke="#B9B9C5" stroke-linejoin="bevel"/>
    <path d="M618.11 693.414H601.929V774.434H618.11V693.414Z" stroke="#B9B9C5" stroke-linejoin="bevel"/>
    <path d="M650.531 693.414H634.35V774.434H650.531V693.414Z" stroke="#B9B9C5" stroke-linejoin="bevel"/>
    <path d="M682.944 693.414H666.762V774.434H682.944V693.414V693.414Z" stroke="#B9B9C5" stroke-linejoin="bevel"/>
    <path d="M715.37 693.414H699.189V774.434H715.37V693.414Z" stroke="#B9B9C5" stroke-linejoin="bevel"/>
    <path d="M747.797 693.414H731.616V774.434H747.797V693.414Z" stroke="#B9B9C5" stroke-linejoin="bevel"/>
    <path d="M1007.15 466.468V450.287H901.826L845.048 393.507L787.753 450.801L845.048 508.095L854.258 498.889H1007.15V482.65H870.438L886.672 466.468H1007.15V466.468ZM1007.16 515.071H845.056V531.253H1007.16V515.071V515.071ZM1114.95 557.043L1141.94 539.66L1168.92 557.043V541.204L1141.94 523.821L1114.89 541.204L1087.9 523.821L1060.91 541.204L1033.87 523.821L1006.88 541.204V557.043L1033.87 539.66L1060.86 557.043H1060.91L1087.9 539.66L1114.89 557.043H1114.95V557.043ZM1114.95 597.409L1141.94 580.027L1168.92 597.409V581.57L1141.94 564.189L1114.89 581.57L1087.9 564.189L1060.91 581.57L1033.87 564.189L1006.88 581.57V597.409L1033.87 580.027L1060.86 597.409H1060.91L1087.9 580.027L1114.89 597.409H1114.95ZM1047.64 693.414V774.434H1128.72V693.414H1088.19V612.505L1007.05 664.653L926.082 612.448V693.414H1047.64V693.414ZM1007.17 369.21V369.15L1006.99 369.21H1007.17Z" stroke="#B9B9C5" stroke-linejoin="bevel"/>
    <path d="M845.056 288.185H764.03V304.365H845.056V320.605H764.03V336.786H845.056V353.026H764.03V369.207H845.056H845.345L845.056 369.036L926.196 316.888L1007.16 369.15V288.185H845.056ZM764.03 572.652L682.895 520.16L601.929 572.537L651.675 604.615L601.929 636.864L682.895 689.011L764.03 636.922L714.172 604.672L764.03 572.652V572.652ZM682.952 416.779H682.894L628.688 451.888L628.459 452.002L737.443 452.059L682.952 416.779V416.779ZM1088.06 421.354L1007.33 369.264H1007.16V450.345H1169.2V369.264H1169.14L1088.06 421.354V421.354ZM1159.65 298.19L1133.87 291.957L1147.76 269.086L1146.9 268.228L1124.03 282.008L1117.91 256.22H1116.66L1110.43 281.951L1087.9 268.057L1086.98 268.914L1100.76 291.786L1075.03 297.904V299.277L1100.82 305.509L1086.92 328.095L1087.78 329.01L1110.65 315.173L1116.77 340.96H1118.03L1124.26 315.229L1146.79 329.124L1147.7 328.267L1133.87 305.394L1159.6 299.277L1159.65 298.19V298.19ZM1139.58 190.236L1126.04 186.919L1133.35 175.083L1132.89 174.626L1121 181.887L1117.8 168.336H1117.17L1113.86 181.83L1102.02 174.569L1101.56 175.026L1108.82 186.919L1095.27 190.122V190.636L1108.77 193.895L1101.51 205.789L1101.96 206.246L1113.86 198.985L1117.05 212.536H1117.69L1121 198.985L1132.84 206.303L1133.3 205.846L1126.04 193.953L1139.58 190.75V190.236V190.236ZM1082.01 232.263L1068.51 228.946L1075.77 217.11L1075.32 216.653L1063.53 223.914L1060.28 210.363H1059.65L1056.39 223.857L1044.5 216.595L1044.04 217.053L1051.3 228.889L1037.75 232.148V232.777L1051.3 236.036L1043.93 247.815C1044.09 247.955 1044.25 248.108 1044.39 248.273L1056.27 241.011L1059.48 254.563H1060.11L1063.42 241.011L1075.26 248.33L1075.72 247.872L1068.46 236.379L1082.01 233.177V232.263V232.263ZM1197.17 232.263L1183.61 228.946L1190.93 217.11L1190.48 216.653L1178.58 223.914L1175.38 210.363H1174.69L1171.43 223.857L1159.6 216.595C1159.42 216.717 1159.27 216.872 1159.14 217.053L1166.4 228.889L1152.85 232.148V232.777L1166.34 236.036L1159.08 247.815L1159.54 248.273L1171.38 241.011L1174.64 254.563H1175.26L1178.53 241.011L1190.42 248.33L1190.87 247.872L1183.61 236.379L1197.17 233.177V232.263V232.263Z" stroke="#B9B9C5" stroke-linejoin="bevel"/>
    <path d="M711.3 168.294L682.957 139.952L654.614 168.294L682.957 196.637L711.3 168.294ZM1250.28 364.575L1331.25 416.78L1331.31 369.264L1250.28 316.945L1169.21 369.264L1169.27 416.78L1250.28 364.575V364.575ZM1412.34 662.082L1493.3 714.344L1493.42 666.77L1412.34 614.507L1331.31 666.77L1331.37 714.344L1412.34 662.082ZM1412.34 722.233L1493.3 774.434L1493.42 726.921L1412.34 674.602L1331.31 726.921L1331.37 774.434L1412.34 722.233ZM1185.39 693.414H1169.21V774.434H1185.39V693.414V693.414ZM1217.81 693.414H1201.63V774.434H1217.81V693.414V693.414ZM1250.23 693.414H1234.04V774.434H1250.23V693.414V693.414ZM1282.65 693.415H1266.47V774.442H1282.65V693.415V693.415ZM1315.07 693.415H1298.89V774.442H1315.07V693.415V693.415ZM1412.34 288.184H1331.31V304.365H1412.34V320.605H1331.31V336.786H1412.34V353.026H1331.31V369.207H1412.34H1412.62L1412.34 369.036L1493.47 316.888L1574.43 369.15V288.184H1412.34V288.184ZM1331.31 572.652L1250.17 520.16L1169.21 572.537L1218.95 604.615L1169.21 636.864L1250.17 689.011L1331.31 636.921L1281.45 604.672L1331.31 572.652V572.652ZM1250.28 416.779H1250.17L1195.97 451.888L1195.79 452.002L1304.78 452.059L1250.28 416.779ZM1278.62 168.29L1250.28 139.947L1221.93 168.289L1250.28 196.632L1278.62 168.29V168.29Z" stroke="#B9B9C5" stroke-linejoin="bevel"/>
    <path d="M101.948 1205.46L128.937 1188.07L155.926 1205.46V1189.62L128.937 1172.18L101.891 1189.62L74.903 1172.18L47.9146 1189.62L20.8685 1172.18L-6.11987 1189.62V1205.46L20.8685 1188.07L47.8568 1205.46H47.9139L74.9022 1188.07L101.891 1205.46H101.948H101.948Z" stroke="#B9B9C5" stroke-linejoin="bevel"/>
    <path d="M101.948 1245.82L128.937 1228.44L155.926 1245.82V1229.99L128.937 1212.55L101.891 1229.99L74.903 1212.55L47.9146 1229.99L20.8685 1212.55L-6.11987 1229.99V1245.82L20.8685 1228.44L47.8568 1245.82H47.9139L74.9022 1228.44L101.891 1245.82H101.948H101.948Z" stroke="#B9B9C5" stroke-linejoin="bevel"/>
    <path d="M34.6532 1341.78V1422.79H115.734V1341.78H75.1936V1260.92L-5.94417 1313.01L-86.9099 1260.86V1341.78H34.6532ZM75.0703 1069.72L-5.66713 1017.68H-5.83838V1098.71H156.208V1017.68H156.151L75.0703 1069.72V1069.72ZM146.666 946.608L120.879 940.314L134.773 917.786L133.916 916.873L111.044 930.709L104.926 904.923H103.668L97.435 930.709L74.9059 916.812L73.9911 917.672L87.8285 940.543L62.0411 946.662V947.917L87.8285 954.151L73.934 977.029L74.7917 977.882L97.6633 964.106L103.782 989.892H105.04L111.272 964.106L133.801 978.057L134.716 977.143L120.936 954.265L146.723 948.146L146.666 946.608V946.608ZM126.598 838.594L113.103 835.337L120.364 823.502L119.908 822.984L108.014 830.245L104.812 816.751H104.183L100.867 830.306L89.0302 822.984L88.5728 823.441L95.8352 835.337L82.2832 838.541V839.226L95.8352 842.483L88.5157 854.318L88.9732 854.775L100.867 847.575L104.069 861.069H104.697L108.014 847.514L119.85 854.836L120.308 854.372L113.046 842.483L126.598 839.279V838.594ZM69.0181 880.622L55.5239 877.357L62.9004 865.354L62.5001 864.837L50.6065 872.098L47.3475 858.55H46.7188L43.4598 872.098L31.6233 864.783L31.1088 865.24L38.3704 877.128L24.8192 880.333V881.017L38.3704 884.283L31.0518 896.118L31.5092 896.574L43.4028 889.367L46.6047 902.861H47.2904L50.5494 889.313L62.3859 896.627L62.8433 896.171L55.5818 884.283L69.133 881.078L69.0188 880.622H69.0181ZM184.176 880.622L170.625 877.364L177.943 865.522L177.486 865.012L165.592 872.273L162.39 858.718H161.762L158.445 872.273L146.609 864.951L146.152 865.408L153.413 877.303L139.862 880.508V881.193L153.356 884.45L146.095 896.285L146.552 896.742L158.388 889.542L161.647 903.036H162.276L165.535 889.481L177.429 896.803L177.886 896.346L170.625 884.45L184.176 881.246V880.622V880.622ZM237.29 1012.94L318.256 1065.14L318.314 1017.63L237.29 965.362L156.21 1017.63L156.267 1065.14L237.29 1012.94V1012.94Z" stroke="#B9B9C5" stroke-linejoin="bevel"/>
    <path d="M399.337 1310.49L480.303 1362.7L480.417 1315.18L399.337 1262.93L318.313 1315.18L318.37 1362.7L399.337 1310.49V1310.49Z" stroke="#B9B9C5" stroke-linejoin="bevel"/>
    <path d="M399.337 1370.59L480.303 1422.79L480.417 1375.28L399.337 1323.02L318.313 1375.28L318.37 1422.79L399.337 1370.59V1370.59Z" stroke="#B9B9C5" stroke-linejoin="bevel"/>
    <path d="M423.243 832.018V774.495H342.163V884.161H342.506L423.129 831.957L423.243 832.018Z" stroke="#B9B9C5" stroke-linejoin="bevel"/>
    <path d="M423.243 832.018L423.129 831.965L342.506 884.168L342.163 884.336L423.129 936.6L504.267 884.45L423.243 832.018ZM561.439 1114.89V1098.64H456.114L399.335 1041.87L342.041 1099.16L399.335 1156.51L408.541 1147.25H561.439V1131.07H424.78L440.962 1114.89H561.439ZM561.446 1163.49H399.341V1179.67H561.446V1163.49V1163.49Z" stroke="#B9B9C5" stroke-linejoin="bevel"/>
    <path d="M669.221 1205.46L696.211 1188.07L723.199 1205.46L723.256 1189.62L696.211 1172.18L669.221 1189.62L642.175 1172.18L615.187 1189.62L588.198 1172.18L561.152 1189.62V1205.46L588.198 1188.07L615.13 1205.46H615.187L642.175 1188.07L669.164 1205.46H669.221V1205.46Z" stroke="#B9B9C5" stroke-linejoin="bevel"/>
    <path d="M669.221 1245.82L696.211 1228.44L723.199 1245.82L723.256 1229.99L696.211 1212.55L669.221 1229.99L642.175 1212.55L615.187 1229.99L588.198 1212.55L561.152 1229.99V1245.82L588.198 1228.44L615.13 1245.82H615.187L642.175 1228.44L669.164 1245.82H669.221V1245.82Z" stroke="#B9B9C5" stroke-linejoin="bevel"/>
    <path d="M601.98 1341.78V1422.79H683.004V1341.78H642.464V1260.92L561.326 1313.01L480.417 1260.86V1341.78H601.98ZM561.452 1017.63V1017.51L561.274 1017.63H561.452ZM399.337 936.6H318.313V952.781H399.337V968.962H318.313V985.203H399.337V1001.38H318.313V1017.63H399.337H399.623L399.337 1017.45L480.474 965.301L561.44 1017.51V936.6H399.337ZM318.314 1221.01L237.176 1168.57L156.21 1220.95L205.956 1253.03L156.21 1285.22L237.176 1337.43L318.314 1285.33L268.453 1253.03L318.314 1221.01V1221.01ZM237.292 1065.19L237.235 1065.14L183.028 1100.25L182.742 1100.42L291.784 1100.48L237.292 1065.19V1065.19ZM642.405 1069.72L561.668 1017.68H561.439V1098.71H723.543V1017.68H723.429L642.405 1069.72ZM713.94 946.608L688.152 940.314L702.104 917.786L701.19 916.873L678.317 930.709L672.257 904.923H670.999L664.709 930.709L642.18 916.812L641.265 917.672L655.102 940.543L629.314 946.662V947.917L655.045 954.151L641.151 977.029L642.009 977.882L664.88 964.106L670.999 989.892H672.257L678.489 964.106L701.075 978.057L701.932 977.143L688.152 954.265L713.94 948.146V946.608V946.608ZM693.871 838.594L680.377 835.337L687.695 823.502L687.239 822.984L675.345 830.245L672.143 816.751H671.457L668.198 830.306L656.361 822.984L655.847 823.441L663.108 835.337L649.557 838.541V839.226L663.108 842.483L655.79 854.318L656.247 854.775L668.141 847.575L671.343 861.069H672.028L675.288 847.514L687.124 854.836L687.581 854.372L680.434 842.483L693.986 839.279L693.871 838.594ZM636.348 880.622L622.796 877.364L630.115 865.522L629.658 865.012L617.765 872.272L614.563 858.717H613.876L610.617 872.272L598.781 864.951L598.323 865.408L605.528 877.303L592.034 880.508V881.193L605.585 884.45L598.266 896.285L598.724 896.742L610.617 889.542L613.819 903.036H614.505L617.765 889.481L629.6 896.803L630.115 896.346L622.853 884.45L636.405 881.246L636.348 880.622V880.622ZM751.454 880.622L737.959 877.364L745.221 865.522L744.764 865.012L732.871 872.272L729.669 858.717H729.039L725.723 872.272L713.887 864.951L713.429 865.408L720.692 877.303L707.14 880.508V881.193L720.692 884.45L713.372 896.285L713.83 896.742L725.723 889.542L728.925 903.036H729.554L732.871 889.481L744.707 896.803L745.165 896.346L737.902 884.45L751.454 881.246V880.622V880.622ZM265.645 816.736L237.302 788.393L208.959 816.736L237.302 845.079L265.645 816.736ZM804.566 1012.94L885.531 1065.14L885.591 1017.63L804.566 965.362L723.543 1017.63L723.6 1065.14L804.566 1012.94ZM966.678 1310.49L1047.64 1362.7L1047.7 1315.18L966.678 1262.93L885.599 1315.18L885.652 1362.7L966.678 1310.49ZM966.678 1370.59L1047.64 1422.79L1047.7 1375.28L966.678 1323.02L885.599 1375.28L885.652 1422.79L966.678 1370.59ZM990.523 832.018V774.495H909.497V884.161H909.84L990.409 831.957L990.523 832.018Z" stroke="#B9B9C5" stroke-linejoin="bevel"/>
    <path d="M990.523 832.018L990.409 831.965L909.84 884.168L909.497 884.336L990.409 936.6L1071.54 884.45L990.523 832.018V832.018ZM1128.71 1114.89V1098.64H1023.45L966.671 1041.87L909.315 1099.16L966.671 1156.51L975.872 1147.25H1128.71V1131.07H992.061L1008.24 1114.89H1128.71ZM1128.78 1163.49H966.678V1179.67H1128.78V1163.49Z" stroke="#B9B9C5" stroke-linejoin="bevel"/>
    <path d="M1236.5 1205.46L1263.54 1188.07L1290.53 1205.46V1189.62L1263.54 1172.18L1236.5 1189.62L1209.51 1172.18L1182.46 1189.62L1155.47 1172.18L1128.43 1189.62L1128.49 1205.46L1155.47 1188.07L1182.46 1205.46H1182.52L1209.51 1188.07L1236.5 1205.46Z" stroke="#B9B9C5" stroke-linejoin="bevel"/>
    <path d="M1236.5 1245.82L1263.54 1228.44L1290.53 1245.82V1229.99L1263.54 1212.55L1236.5 1229.99L1209.51 1212.55L1182.46 1229.99L1155.47 1212.55L1128.43 1229.99L1128.49 1245.82L1155.47 1228.44L1182.46 1245.82H1182.52L1209.51 1228.44L1236.5 1245.82Z" stroke="#B9B9C5" stroke-linejoin="bevel"/>
    <path d="M1169.26 1341.78V1422.79H1250.28V1341.78H1209.8V1260.92L1128.66 1313.01L1047.7 1260.86V1341.78H1169.26V1341.78ZM1128.72 1017.63V1017.51L1128.6 1017.63H1128.72Z" stroke="#B9B9C5" stroke-linejoin="bevel"/>
    <path d="M966.678 936.6H885.599V952.781H966.678V968.962H885.599V985.203H966.678V1001.38H885.599V1017.63H966.678H966.968L966.678 1017.45L1047.82 965.301L1128.72 1017.51V936.6H966.678V936.6ZM885.592 1221.01L804.452 1168.57L723.543 1220.95L773.232 1253.03L723.543 1285.22L804.452 1337.43L885.592 1285.33L835.786 1253.03L885.592 1221.01V1221.01ZM804.573 1065.19L804.512 1065.14L750.309 1100.25L750.08 1100.42L859.068 1100.48L804.573 1065.19V1065.19ZM1209.68 1069.71L1128.94 1017.68H1128.71V1098.7H1290.82V1017.68H1290.71L1209.68 1069.71ZM1281.22 946.608L1255.49 940.314L1269.38 917.786L1268.53 916.872L1245.66 930.709L1239.54 904.923H1238.27L1232.04 930.709L1209.17 916.812L1208.32 917.672L1222.09 940.542L1196.31 946.662V947.917L1222.04 954.151L1208.14 977.029L1209 977.882L1231.87 964.106L1237.99 989.892H1239.25L1245.48 964.106L1268.35 978.057L1269.27 977.143L1255.43 954.265L1281.22 948.146V946.608V946.608ZM1261.21 838.594L1247.65 835.337L1254.97 823.502L1254.52 822.984L1242.62 830.245L1239.42 816.751H1238.73L1235.47 830.306L1223.64 822.984L1223.18 823.441L1230.38 835.337L1216.89 838.541V839.226L1230.44 842.483L1223.12 854.318L1223.58 854.775L1235.47 847.575L1238.67 861.069H1239.36L1242.62 847.514L1254.45 854.836L1254.97 854.372L1247.65 842.483L1261.21 839.279V838.594V838.594ZM1203.63 880.622L1190.07 877.364L1197.4 865.522L1196.93 865.012L1185.04 872.272L1181.84 858.717H1181.21L1177.9 872.272L1166.06 864.951L1165.6 865.407L1172.87 877.303L1159.31 880.507V881.192L1172.8 884.45L1165.54 896.285L1166 896.742L1177.84 889.542L1181.09 903.036H1181.73L1184.98 889.481L1196.88 896.802L1197.34 896.346L1190.07 884.45L1203.63 881.246V880.622V880.622ZM1318.73 880.622L1305.23 877.364L1312.56 865.522L1312.1 865.012L1300.2 872.272L1297 858.717H1296.31L1293.06 872.272L1281.22 864.951L1280.7 865.407L1287.97 877.303L1274.42 880.507V881.192L1287.97 884.45L1280.65 896.285L1281.11 896.742L1293 889.542L1296.2 903.036H1296.89L1300.15 889.481L1311.99 896.802L1312.44 896.346L1305.23 884.45L1318.73 881.246V880.622V880.622ZM832.886 816.69L804.543 788.347L776.2 816.69L804.543 845.033L832.886 816.69ZM1371.85 1012.94L1452.82 1065.14L1452.93 1017.63L1371.85 965.362L1290.83 1017.63L1290.88 1065.14L1371.85 1012.94V1012.94ZM1452.93 1221.01L1371.74 1168.57L1290.83 1220.95L1340.57 1253.03L1290.83 1285.22L1371.74 1337.43L1452.93 1285.33L1403.07 1253.03L1452.93 1221.01V1221.01ZM1371.85 1065.19L1371.79 1065.14L1317.59 1100.25L1317.36 1100.42L1426.34 1100.48L1371.85 1065.19V1065.19Z" stroke="#B9B9C5" stroke-linejoin="bevel"/>
</svg>
