<svg width="142" height="56" viewBox="0 0 142 56" fill="none" xmlns="http://www.w3.org/2000/svg">
    <path d="M10.82 7.48H4.36V20H2.7V6H12.48V20H10.82V7.48ZM15.1636 15C15.1636 13.3067 15.5369 12.0133 16.2836 11.12C17.0436 10.2133 18.1303 9.76 19.5436 9.76C20.2903 9.76 20.9369 9.88667 21.4836 10.14C22.0436 10.38 22.5036 10.7333 22.8636 11.2C23.2236 11.6533 23.4903 12.2067 23.6636 12.86C23.8369 13.5 23.9236 14.2133 23.9236 15C23.9236 16.6933 23.5436 17.9933 22.7836 18.9C22.0369 19.7933 20.9569 20.24 19.5436 20.24C18.7969 20.24 18.1436 20.12 17.5836 19.88C17.0369 19.6267 16.5836 19.2733 16.2236 18.82C15.8636 18.3533 15.5969 17.8 15.4236 17.16C15.2503 16.5067 15.1636 15.7867 15.1636 15ZM16.8236 15C16.8236 15.5067 16.8703 15.9933 16.9636 16.46C17.0703 16.9267 17.2303 17.3333 17.4436 17.68C17.6569 18.0267 17.9369 18.3067 18.2836 18.52C18.6303 18.7333 19.0503 18.84 19.5436 18.84C21.3569 18.8533 22.2636 17.5733 22.2636 15C22.2636 14.48 22.2103 13.9867 22.1036 13.52C22.0103 13.0533 21.8569 12.6467 21.6436 12.3C21.4303 11.9533 21.1503 11.68 20.8036 11.48C20.4569 11.2667 20.0369 11.16 19.5436 11.16C17.7303 11.1467 16.8236 12.4267 16.8236 15ZM32.6863 14.08L32.7463 12.84H32.6863L31.8663 14.12L27.3663 20H26.4463V10H28.0463V16.1L27.9863 17.28H28.0663L28.8463 16.04L33.3463 10H34.2863V20H32.6863V14.08ZM44.1842 19.34C43.7842 19.6333 43.3109 19.8533 42.7642 20C42.2176 20.16 41.6442 20.24 41.0442 20.24C40.2709 20.24 39.6176 20.12 39.0842 19.88C38.5509 19.6267 38.1109 19.2733 37.7642 18.82C37.4309 18.3533 37.1842 17.8 37.0242 17.16C36.8776 16.5067 36.8042 15.7867 36.8042 15C36.8042 13.3067 37.1776 12.0133 37.9242 11.12C38.6709 10.2133 39.7442 9.76 41.1442 9.76C41.7842 9.76 42.3242 9.81333 42.7642 9.92C43.2176 10.0133 43.6242 10.1533 43.9842 10.34L43.5242 11.72C43.2176 11.5467 42.8776 11.4133 42.5042 11.32C42.1309 11.2133 41.7309 11.16 41.3042 11.16C39.4109 11.16 38.4642 12.44 38.4642 15C38.4642 15.5067 38.5109 15.9933 38.6042 16.46C38.7109 16.9133 38.8776 17.32 39.1042 17.68C39.3442 18.0267 39.6509 18.3067 40.0242 18.52C40.4109 18.7333 40.8842 18.84 41.4442 18.84C41.9242 18.84 42.3509 18.7667 42.7242 18.62C43.1109 18.4733 43.4242 18.3067 43.6642 18.12L44.1842 19.34ZM48.9077 15.5H47.9877V20H46.3877V10H47.9877V14.52L48.8477 14.24L52.0477 10H53.7877L50.6877 14.02L49.8477 14.68L50.8877 15.48L54.2277 20H52.2477L48.9077 15.5Z" fill="#0054A6"/>
    <path d="M12.42 32.14H6.732V46H2.052V28H17.1V46H12.42V32.14ZM21.1042 29.044C22.0642 28.612 23.2042 28.276 24.5242 28.036C25.8442 27.772 27.2242 27.64 28.6642 27.64C29.9122 27.64 30.9562 27.796 31.7962 28.108C32.6362 28.396 33.2962 28.816 33.7762 29.368C34.2802 29.92 34.6282 30.58 34.8202 31.348C35.0362 32.116 35.1442 32.98 35.1442 33.94C35.1442 34.996 35.1082 36.064 35.0362 37.144C34.9642 38.2 34.9162 39.244 34.8922 40.276C34.8922 41.308 34.9282 42.316 35.0002 43.3C35.0722 44.26 35.2522 45.172 35.5402 46.036H31.7242L30.9682 43.552H30.7882C30.3082 44.296 29.6362 44.944 28.7722 45.496C27.9322 46.024 26.8402 46.288 25.4962 46.288C24.6562 46.288 23.9002 46.168 23.2282 45.928C22.5562 45.664 21.9802 45.304 21.5002 44.848C21.0202 44.368 20.6482 43.816 20.3842 43.192C20.1202 42.544 19.9882 41.824 19.9882 41.032C19.9882 39.928 20.2282 39.004 20.7082 38.26C21.2122 37.492 21.9202 36.88 22.8322 36.424C23.7682 35.944 24.8722 35.62 26.1442 35.452C27.4402 35.26 28.8802 35.2 30.4642 35.272C30.6322 33.928 30.5362 32.968 30.1762 32.392C29.8162 31.792 29.0122 31.492 27.7642 31.492C26.8282 31.492 25.8322 31.588 24.7762 31.78C23.7442 31.972 22.8922 32.224 22.2202 32.536L21.1042 29.044ZM27.0442 42.436C27.9802 42.436 28.7242 42.232 29.2762 41.824C29.8282 41.392 30.2362 40.936 30.5002 40.456V38.116C29.7562 38.044 29.0362 38.032 28.3402 38.08C27.6682 38.128 27.0682 38.236 26.5402 38.404C26.0122 38.572 25.5922 38.812 25.2802 39.124C24.9682 39.436 24.8122 39.832 24.8122 40.312C24.8122 40.984 25.0042 41.512 25.3882 41.896C25.7962 42.256 26.3482 42.436 27.0442 42.436ZM52.0315 32.14H46.9555V46H42.1315V32.14H37.0555V28H52.0315V32.14ZM68.2372 44.452C67.5172 45.028 66.5332 45.52 65.2852 45.928C64.0612 46.312 62.7532 46.504 61.3612 46.504C58.4572 46.504 56.3332 45.664 54.9892 43.984C53.6452 42.28 52.9732 39.952 52.9732 37C52.9732 33.832 53.7292 31.456 55.2412 29.872C56.7532 28.288 58.8772 27.496 61.6132 27.496C62.5252 27.496 63.4132 27.616 64.2772 27.856C65.1412 28.096 65.9092 28.492 66.5812 29.044C67.2532 29.596 67.7932 30.34 68.2012 31.276C68.6092 32.212 68.8132 33.376 68.8132 34.768C68.8132 35.272 68.7772 35.812 68.7052 36.388C68.6572 36.964 68.5732 37.564 68.4532 38.188H57.6532C57.7252 39.7 58.1092 40.84 58.8052 41.608C59.5252 42.376 60.6772 42.76 62.2612 42.76C63.2452 42.76 64.1212 42.616 64.8892 42.328C65.6812 42.016 66.2812 41.704 66.6892 41.392L68.2372 44.452ZM61.5412 31.24C60.3172 31.24 59.4052 31.612 58.8052 32.356C58.2292 33.076 57.8812 34.048 57.7612 35.272H64.4572C64.5532 33.976 64.3492 32.98 63.8452 32.284C63.3652 31.588 62.5972 31.24 61.5412 31.24ZM82.6664 38.908H76.7984V46H72.1184V28H76.7984V34.768H82.6664V28H87.3464V46H82.6664V38.908ZM104.414 32.14H99.3383V46H94.5143V32.14H89.4383V28H104.414V32.14ZM105.356 37C105.356 33.952 106.1 31.612 107.588 29.98C109.076 28.324 111.164 27.496 113.852 27.496C115.292 27.496 116.54 27.724 117.596 28.18C118.652 28.636 119.528 29.284 120.224 30.124C120.92 30.94 121.436 31.936 121.772 33.112C122.132 34.288 122.312 35.584 122.312 37C122.312 40.048 121.568 42.4 120.08 44.056C118.616 45.688 116.54 46.504 113.852 46.504C112.412 46.504 111.164 46.276 110.108 45.82C109.052 45.364 108.164 44.728 107.444 43.912C106.748 43.072 106.22 42.064 105.86 40.888C105.524 39.712 105.356 38.416 105.356 37ZM110.18 37C110.18 37.792 110.252 38.524 110.396 39.196C110.54 39.868 110.756 40.456 111.044 40.96C111.332 41.464 111.704 41.86 112.16 42.148C112.64 42.412 113.204 42.544 113.852 42.544C115.076 42.544 115.988 42.1 116.588 41.212C117.188 40.324 117.488 38.92 117.488 37C117.488 35.344 117.212 34.012 116.66 33.004C116.108 31.972 115.172 31.456 113.852 31.456C112.7 31.456 111.8 31.888 111.152 32.752C110.504 33.616 110.18 35.032 110.18 37ZM125.556 28.036C126.396 27.964 127.404 27.892 128.58 27.82C129.78 27.748 131.064 27.712 132.432 27.712C135.072 27.712 136.944 28.096 138.048 28.864C139.176 29.608 139.74 30.736 139.74 32.248C139.74 33.088 139.5 33.904 139.02 34.696C138.54 35.488 137.784 36.064 136.752 36.424V36.568C138.048 36.856 138.984 37.372 139.56 38.116C140.136 38.836 140.424 39.772 140.424 40.924C140.424 42.724 139.728 44.068 138.336 44.956C136.968 45.844 134.76 46.288 131.712 46.288C130.704 46.288 129.636 46.252 128.508 46.18C127.38 46.132 126.396 46.06 125.556 45.964V28.036ZM130.128 42.4C130.464 42.448 130.776 42.484 131.064 42.508C131.352 42.532 131.712 42.544 132.144 42.544C133.44 42.544 134.364 42.364 134.916 42.004C135.468 41.644 135.744 41.092 135.744 40.348C135.744 39.724 135.504 39.22 135.024 38.836C134.568 38.428 133.74 38.224 132.54 38.224H130.128V42.4ZM132.612 35.344C133.38 35.344 134.004 35.164 134.484 34.804C134.988 34.42 135.24 33.94 135.24 33.364C135.24 32.74 135.024 32.272 134.592 31.96C134.184 31.624 133.428 31.456 132.324 31.456C131.772 31.456 131.328 31.468 130.992 31.492C130.68 31.516 130.392 31.54 130.128 31.564V35.344H132.612Z" fill="#363636"/>
</svg>
