<svg width="78" height="63" viewBox="0 0 78 63" fill="none" xmlns="http://www.w3.org/2000/svg">
    <path d="M3.23716 50.9802C5.54941 50.9802 7.01382 52.4355 7.01382 54.5035C7.01382 56.5718 5.54941 58.0343 3.23716 58.0343H0.924902V62.1705H0V50.9802H3.23716ZM3.23716 57.1077C5.08696 57.1077 6.08896 56.1121 6.08896 54.4959C6.08896 52.8798 5.08696 51.8917 3.23716 51.8917H0.924902V57.1077H3.23716Z" fill="#353535"/>
    <path d="M8.32426 58.2103C8.30091 57.6571 8.392 57.1049 8.5918 56.5879C8.79164 56.0709 9.09596 55.6001 9.48596 55.2045C9.87601 54.8093 10.3435 54.4975 10.8595 54.2885C11.3756 54.0796 11.9292 53.978 12.4863 53.99C13.5664 54.0548 14.5809 54.5268 15.3226 55.3098C16.0644 56.0926 16.4774 57.1272 16.4774 58.2025C16.4774 59.2778 16.0644 60.3124 15.3226 61.0958C14.5809 61.8785 13.5664 62.3504 12.4863 62.4151C11.9303 62.4279 11.3774 62.3276 10.8619 62.1203C10.3465 61.9125 9.8793 61.6022 9.48924 61.2083C9.09919 60.8138 8.7946 60.3447 8.59425 59.8288C8.39384 59.3135 8.30197 58.7625 8.32426 58.2103ZM15.7234 58.2103C15.7581 57.7752 15.6988 57.3378 15.5496 56.9272C15.4004 56.5166 15.1646 56.1428 14.8581 55.8302C14.5516 55.5176 14.1814 55.2736 13.7724 55.1149C13.3633 54.9561 12.9249 54.8859 12.4863 54.9091C11.634 54.9499 10.8301 55.3154 10.2414 55.9288C9.65271 56.5428 9.32433 57.3584 9.32433 58.2064C9.32433 59.0544 9.65271 59.87 10.2414 60.484C10.8301 61.0974 11.634 61.4629 12.4863 61.5036C12.9241 61.527 13.3619 61.4568 13.7704 61.2986C14.1788 61.1398 14.5486 60.8969 14.855 60.5849C15.1613 60.2734 15.3973 59.9001 15.5471 59.4906C15.6968 59.0811 15.7569 58.6449 15.7234 58.2103Z" fill="#353535"/>
    <path d="M25.3578 61.4044C24.5644 62.0769 23.548 62.4318 22.506 62.4C21.8107 62.3878 21.129 62.2061 20.521 61.8707C19.913 61.5353 19.3971 61.0567 19.0188 60.4768C18.6403 59.8968 18.4111 59.2338 18.351 58.5451C18.291 57.8565 18.4019 57.164 18.6742 56.5283C18.9465 55.8926 19.3718 55.3327 19.9127 54.8983C20.4536 54.4639 21.0935 54.1682 21.7763 54.0371C22.4591 53.906 23.1639 53.9435 23.8287 54.1464C24.4935 54.3492 25.0979 54.7112 25.589 55.2006L25.2037 55.9667C24.5027 55.2847 23.564 54.8976 22.5831 54.8866C21.7307 54.9274 20.9269 55.2925 20.3382 55.9065C19.7495 56.5205 19.4211 57.3356 19.4211 58.1841C19.4211 59.0321 19.7495 59.8472 20.3382 60.4612C20.9269 61.0751 21.7307 61.4401 22.5831 61.4813C23.0578 61.4818 23.5277 61.3866 23.9648 61.2027C24.4018 61.0183 24.7969 60.7486 25.1265 60.4088H25.3578V61.4044Z" fill="#353535"/>
    <path d="M33.6049 55.1468H28.5179V62.2011H27.593V54.1971H34.5298V62.1705H33.6049V55.1468Z" fill="#353535"/>
    <path d="M43.3932 57.1913V62.1699H42.5454L42.4683 60.7147H42.3913C42.1182 61.2127 41.7181 61.6306 41.231 61.9264C40.7439 62.2223 40.1871 62.3855 39.6165 62.3995C39.2747 62.4273 38.9309 62.3844 38.6065 62.2735C38.2821 62.1632 37.9841 61.9877 37.731 61.7576C37.4779 61.5275 37.2752 61.2484 37.1354 60.937C36.9958 60.6261 36.9221 60.2896 36.9189 59.9486C36.9189 58.4933 37.998 57.4214 39.8478 57.4214C40.7904 57.4102 41.7108 57.7061 42.4683 58.2638V57.1913C42.4683 55.6597 41.6976 54.8936 40.2332 54.8936C39.1319 54.9408 38.0764 55.3444 37.2272 56.0425H37.073V55.0468C37.9767 54.3494 39.089 53.972 40.2332 53.9746C40.6618 53.9475 41.0913 54.0129 41.4923 54.1661C41.8932 54.3193 42.2561 54.5567 42.5562 54.8622C42.8563 55.1677 43.0864 55.5338 43.2309 55.936C43.3753 56.3377 43.4307 56.7662 43.3932 57.1913ZM42.4683 59.3363C41.783 58.6883 40.8707 58.3312 39.9248 58.3401C38.4604 58.3401 37.8438 58.953 37.8438 59.9486C37.8438 60.9442 38.4604 61.4807 39.6936 61.4807C41.6205 61.4807 42.4683 59.3363 42.4683 59.3363Z" fill="#353535"/>
    <path d="M44.8576 55.1467V54.2276H51.6402V55.1467H48.7114V62.2012H47.7864V55.1467H44.8576Z" fill="#353535"/>
    <path d="M59.6561 60.4088H59.8873V61.4044C59.0104 62.0869 57.9184 62.4396 56.8046 62.4C55.7232 62.346 54.7038 61.883 53.9543 61.1069C53.2048 60.3308 52.7819 59.2995 52.7721 58.2237C52.7622 57.1478 53.1662 56.1088 53.9013 55.3193C54.6365 54.5295 55.6474 54.0487 56.7272 53.9749C58.8856 53.9749 60.4272 55.5065 60.4272 57.8888V58.3485H53.6443C53.6332 58.7702 53.7099 59.1898 53.8697 59.5809C54.0294 59.972 54.2688 60.3263 54.5727 60.6211C54.8767 60.9158 55.2387 61.1453 55.636 61.2947C56.033 61.444 56.4575 61.5097 56.8815 61.4885C57.9122 61.5002 58.9078 61.113 59.6561 60.4088ZM59.4249 57.4442C59.4182 57.101 59.3424 56.7629 59.2026 56.4486C59.0627 56.135 58.8616 55.8514 58.6103 55.6157C58.3596 55.3795 58.0638 55.1956 57.7401 55.0744C57.4169 54.9532 57.0726 54.897 56.7272 54.9093C56.0029 54.901 55.3 55.153 54.7477 55.619C54.1954 56.0848 53.831 56.7328 53.7215 57.4442H59.4249Z" fill="#353535"/>
    <path d="M68.5971 58.5708H63.5098V62.1705H62.585V54.1971H63.5098V57.6515H68.5971V54.1971H69.5219V62.1705H68.5971V58.5708Z" fill="#353535"/>
    <path d="M71.2173 55.1467V54.2276H78V55.1467H75.0711V62.2012H74.1462V55.1467H71.2173Z" fill="#353535"/>
    <path fill-rule="evenodd" clip-rule="evenodd" d="M33.7974 20.611L32.5874 20.32L33.2425 19.2706L33.1962 19.2247L32.1403 19.8681L31.8551 18.6732H31.7935L31.5006 19.8681L30.4524 19.2247H30.4061L31.0536 20.274L29.8512 20.5574V20.6799L31.0613 20.971L30.4061 22.0127L30.4524 22.0586L31.5083 21.4153L31.7935 22.6177H31.8551L32.1403 21.4153L33.1962 22.0663L33.2425 22.0203L32.5951 20.971L33.7897 20.6799L33.7974 20.611Z" fill="#353535"/>
    <path fill-rule="evenodd" clip-rule="evenodd" d="M40.0792 17.3787L38.8768 17.0877L39.5396 16.0843V16.0383L38.4837 16.6817L38.1908 15.4869H38.1368L37.844 16.6894L36.7881 16.0383V16.0843L37.4355 17.1336L36.2254 17.417V17.4783L37.4278 17.7616L36.7804 18.811L36.8189 18.8569L37.8825 18.2135L38.1677 19.4084H38.2216L38.5145 18.2059L39.5705 18.8569V18.811L38.9307 17.7616L40.0792 17.44V17.3787Z" fill="#353535"/>
    <path fill-rule="evenodd" clip-rule="evenodd" d="M46.3991 20.6111L45.1967 20.32L45.8442 19.2707V19.2324L44.742 19.9141L44.4568 18.7116H44.4028L44.1099 19.9065L43.0541 19.2631L43.6938 20.32L42.4914 20.6034V20.68L43.6938 20.971L43.0463 22.0204C43.0463 22.0204 43.0464 22.0204 43.0849 22.0587L44.1408 21.4229L44.426 22.6178H44.4876L44.7805 21.4229L45.8365 22.0663V22.0281L45.189 20.9787L46.3991 20.68V20.6111Z" fill="#353535"/>
    <path d="M28.9107 3.52318C28.5552 2.8918 28.0397 2.36374 27.4155 1.99133C26.9964 1.75628 26.5149 1.65469 26.0358 1.70028H25.951C25.5796 1.75135 25.2426 1.94353 25.0107 2.23643C24.8888 2.40198 24.8338 2.60697 24.8566 2.81087C24.8566 3.22447 25.242 3.5768 25.8277 3.88317C26.2082 4.06001 26.5551 4.30101 26.8528 4.59548C27.028 4.75399 27.1493 4.9628 27.1996 5.19289C27.2093 5.28069 27.1904 5.36928 27.1457 5.44566C27.0927 5.53581 27.0187 5.61202 26.9299 5.66779C26.7713 5.76463 26.5963 5.83204 26.4135 5.86692H26.2054C26.0563 5.86519 25.9084 5.84196 25.7661 5.798C25.3532 5.66417 24.9764 5.43898 24.6639 5.13929C24.4996 4.9825 24.3476 4.81351 24.2091 4.63378L23.8931 4.16656L23.3767 3.53084L23.3228 3.46957V3.42361C23.0451 3.07469 22.718 2.76767 22.3516 2.51216C21.8351 2.1198 21.187 1.93891 20.5403 2.00665H20.4247C20.2666 2.03571 20.1134 2.0873 19.97 2.15983C19.8203 2.23934 19.685 2.34285 19.5692 2.46621C19.4917 2.55236 19.4292 2.65072 19.3842 2.75726C19.331 2.88038 19.3073 3.01409 19.3148 3.14788C19.379 3.45872 19.5612 3.73304 19.8236 3.91381C20.0327 4.06796 20.2515 4.20868 20.4787 4.33506H20.525C20.6841 4.40005 20.8237 4.50465 20.9303 4.6388C21.037 4.77294 21.1071 4.93212 21.1339 5.10101C21.143 5.17935 21.1354 5.2588 21.1115 5.33407C21.0876 5.40928 21.0479 5.47864 20.9951 5.53759C20.8444 5.65827 20.663 5.73515 20.471 5.75967H20.3862H20.1396C19.9966 5.7527 19.8547 5.7322 19.7157 5.69844C19.56 5.66518 19.4096 5.61108 19.2686 5.53759C18.8637 5.24008 18.4986 4.8926 18.1818 4.50357L17.5267 3.82955C17.2844 3.54616 16.9797 3.32203 16.6362 3.17459C16.2927 3.02715 15.9196 2.96035 15.5459 2.97937H15.4688C15.337 2.99927 15.2094 3.04068 15.0911 3.10192C14.9447 3.16582 14.8154 3.26288 14.7135 3.38532C14.6742 3.44323 14.6406 3.50479 14.6133 3.56914L15.0141 3.77594C15.0253 3.70509 15.0607 3.64022 15.1143 3.59212C15.2334 3.48216 15.3845 3.41245 15.5459 3.39297H15.623C15.9206 3.40129 16.2127 3.47415 16.479 3.60645C16.7452 3.73876 16.9792 3.92731 17.1645 4.1589C17.3803 4.37336 17.5652 4.5725 17.7348 4.75633C18.1172 5.17171 18.535 5.55358 18.9835 5.89756C19.2195 6.03913 19.4815 6.13284 19.7542 6.17329C19.9818 6.20377 20.2125 6.20377 20.4402 6.17329H20.5403C20.8438 6.14348 21.1285 6.01411 21.3496 5.80563C21.4437 5.70312 21.5145 5.5816 21.5571 5.44945C21.5996 5.31724 21.613 5.17751 21.5963 5.03973C21.5597 4.80871 21.4649 4.59066 21.3207 4.40586C21.1765 4.22106 20.9876 4.0755 20.7716 3.98274H20.7331C20.5239 3.8763 20.3252 3.75065 20.1396 3.60744C19.9635 3.49426 19.8368 3.31919 19.785 3.11724C19.7696 3.05433 19.7696 2.98867 19.785 2.92576C19.8444 2.8009 19.9313 2.69095 20.0394 2.60407C20.1743 2.51486 20.3266 2.45485 20.4864 2.42791H20.5403C21.0745 2.40785 21.6002 2.56405 22.0356 2.87215C22.2344 3.01659 22.4155 3.18368 22.5751 3.37C22.7139 3.51552 22.868 3.70701 23.0761 3.9521L23.5386 4.5342C23.7747 4.85722 24.0322 5.16425 24.3094 5.45329C24.6052 5.73292 24.9466 5.9608 25.319 6.12733C25.5997 6.24321 25.9014 6.3006 26.2054 6.29586H26.4058H26.4829C26.7304 6.2558 26.9668 6.16449 27.1765 6.02776C27.3337 5.93478 27.4638 5.80279 27.5542 5.64478C27.6418 5.49714 27.6771 5.32454 27.6544 5.15461C27.6001 4.83222 27.437 4.53781 27.192 4.31975C26.8552 4.00212 26.4669 3.74318 26.0435 3.55382C25.4424 3.27043 25.3267 2.96406 25.3113 2.78789C25.304 2.69953 25.3208 2.61082 25.3602 2.53125C25.3996 2.45166 25.4599 2.38419 25.5348 2.336C25.6722 2.2546 25.8239 2.2 25.9818 2.17515H26.1283C26.486 2.15354 26.8422 2.23605 27.1534 2.41259C27.7173 2.72759 28.1878 3.1846 28.5176 3.73765L28.9184 3.52318H28.9107Z" fill="#353535"/>
    <path d="M47.1392 3.52323C47.4943 2.89406 48.0067 2.36648 48.6267 1.99138C49.0485 1.75617 49.5326 1.65463 50.0141 1.70032H50.0989C50.4698 1.75292 50.8063 1.9448 51.0392 2.23647C51.16 2.40284 51.2173 2.60642 51.2011 2.81092C51.1395 3.05599 51.0179 3.28215 50.8472 3.46923C50.6764 3.65632 50.4617 3.79854 50.2222 3.88322C49.8417 4.06005 49.4949 4.30106 49.1971 4.59552C49.0219 4.75403 48.9006 4.96284 48.8503 5.19294C48.8406 5.28075 48.8596 5.36933 48.9042 5.44572C48.9572 5.53586 49.0312 5.61202 49.12 5.66779C49.2763 5.76379 49.4486 5.83126 49.6288 5.86697H49.8291C49.9781 5.86519 50.1261 5.84201 50.2685 5.79805C50.682 5.662 51.0589 5.43413 51.3706 5.13166C51.5349 4.97489 51.687 4.80589 51.8253 4.62616L52.1953 4.15895L52.7118 3.52323L52.7657 3.46195V3.416C53.0391 3.07089 53.361 2.76653 53.7214 2.5122C54.2379 2.11985 54.8861 1.93895 55.5327 2.00669H55.6252C55.7833 2.03576 55.9366 2.08735 56.0797 2.15988C56.2285 2.23724 56.3622 2.34108 56.4731 2.46625C56.5555 2.55005 56.6207 2.64888 56.6659 2.7573C56.7188 2.88042 56.7427 3.01413 56.7349 3.14793C56.6709 3.45876 56.4887 3.73308 56.2263 3.91385C56.0157 4.06994 55.7945 4.21072 55.5635 4.33511C55.4044 4.40009 55.2648 4.50469 55.1581 4.63884C55.0515 4.77299 54.9814 4.93216 54.9546 5.10101C54.9455 5.1794 54.953 5.25885 54.9769 5.33407C55.0009 5.40934 55.0406 5.4787 55.0934 5.53759C55.2441 5.65832 55.4255 5.73521 55.6175 5.75972H55.7022H55.9488C56.092 5.75276 56.2335 5.73226 56.3728 5.69844C56.5383 5.6576 56.6965 5.59308 56.843 5.507C57.2481 5.20943 57.613 4.86201 57.9295 4.47298L58.5234 3.8296C58.7646 3.5448 59.0688 3.31923 59.4126 3.17045C59.7563 3.02166 60.1296 2.95366 60.504 2.97176H60.5809C60.7129 2.99165 60.8405 3.03306 60.9586 3.09431C61.1052 3.15821 61.2344 3.25526 61.3364 3.3777C61.3364 3.43898 61.406 3.50025 61.4367 3.56153L61.0361 3.76832C61.0216 3.69855 60.9865 3.63458 60.9358 3.5845C60.8188 3.47598 60.6706 3.40638 60.5118 3.38536H60.4271C60.1296 3.39368 59.8371 3.46653 59.5708 3.59884C59.3045 3.73114 59.0705 3.9197 58.8855 4.15128C58.6699 4.36575 58.4849 4.56489 58.315 4.74871C57.9233 5.16815 57.4949 5.55258 57.0358 5.89762C56.7996 6.03919 56.5377 6.1329 56.2647 6.17335C56.0374 6.20382 55.8067 6.20382 55.5789 6.17335H55.4788C55.189 6.13552 54.9189 6.0067 54.708 5.80569C54.6142 5.70273 54.5431 5.58138 54.4992 5.44945C54.4555 5.31757 54.4399 5.17801 54.4536 5.03978C54.4923 4.80845 54.5888 4.59048 54.7342 4.40582C54.8797 4.22116 55.0694 4.07571 55.286 3.98278C55.4952 3.87634 55.6939 3.75069 55.8797 3.60748C56.0686 3.49834 56.2073 3.31948 56.2647 3.10963C56.2842 3.04721 56.2842 2.98057 56.2647 2.91814C56.2045 2.79606 56.1176 2.6888 56.0107 2.60412C55.8758 2.51491 55.7232 2.45489 55.5635 2.42795H55.4941C54.9601 2.40789 54.4343 2.5641 53.9989 2.87219C53.8001 3.01663 53.619 3.18372 53.4594 3.37004C53.3206 3.51557 53.1665 3.70705 52.9584 3.95215L52.4959 4.53425C52.2598 4.85727 52.0024 5.1643 51.7252 5.45335C51.4339 5.73153 51.0978 5.95935 50.7309 6.12738C50.4524 6.2538 50.1506 6.3216 49.8445 6.3265H49.6441H49.5671C49.3195 6.2865 49.0831 6.19519 48.8734 6.05846C48.7163 5.96542 48.5861 5.83349 48.4958 5.67548C48.4136 5.52578 48.3787 5.35496 48.3955 5.18531C48.4498 4.86291 48.613 4.56849 48.858 4.35043C49.1947 4.0328 49.583 3.77387 50.0064 3.5845C50.6076 3.30111 50.7232 2.99474 50.7771 2.81858C50.7845 2.7302 50.7676 2.64151 50.7282 2.56193C50.6889 2.48235 50.6285 2.41487 50.5536 2.36668C50.4163 2.28528 50.2646 2.23069 50.1066 2.20584H49.9601C49.6025 2.18422 49.2462 2.26673 48.9351 2.44327C48.3767 2.7746 47.9146 3.2444 47.594 3.80662L47.1932 3.59216L47.1392 3.52323Z" fill="#353535"/>
    <path d="M20.6409 11.9179C20.6409 11.7724 20.6024 11.6269 20.5869 11.4813C15.631 11.3281 12.6251 9.65079 10.8447 7.5751C9.42017 5.89119 8.58919 3.79036 8.47843 1.59323C11.6045 5.18161 15.8619 7.61154 20.5561 8.48659H20.6255L20.849 8.52486L21.0109 8.56314L21.9203 8.73931H21.9974C23.3786 8.87815 24.7453 9.13438 26.0824 9.50527C26.5862 9.68884 27.0164 10.0303 27.3079 10.478C27.6446 11.0917 27.8021 11.7868 27.7627 12.4847H28.202C28.2533 11.7319 28.096 10.9796 27.7472 10.3094C27.4986 9.91371 27.1507 9.589 26.7376 9.36737C25.5352 8.70103 23.8549 8.67802 22.1131 8.34106L21.0185 8.12656L20.7796 8.08065C15.933 7.20126 11.5561 4.64526 8.4245 0.865601L8.03912 1.01113V1.09538C8.04308 3.56782 8.91846 5.96078 10.5132 7.85852C12.3862 10.049 15.5462 11.78 20.6409 11.9179Z" fill="#353535"/>
    <path d="M55.5941 8.05764L55.3937 8.09592L54.1913 8.33337C52.6498 8.63974 51.1083 8.69334 49.9445 9.16825C49.3704 9.39021 48.8838 9.79047 48.5571 10.3094C48.1731 10.9907 47.9914 11.7662 48.033 12.546H48.4646C48.4233 11.8469 48.5838 11.1507 48.9271 10.5393C49.1368 10.2141 49.4293 9.94992 49.7749 9.77331C50.8231 9.17588 52.5033 9.12992 54.33 8.78527L55.2395 8.6091L55.5247 8.5555L55.702 8.51723H55.7639C60.4322 7.62535 64.662 5.19705 67.772 1.62387C67.6767 3.81469 66.8649 5.91481 65.4598 7.60574C63.687 9.67375 60.704 11.3358 55.8023 11.5043C55.8023 11.6575 55.8023 11.7953 55.7405 11.9486C60.7887 11.7877 63.9338 10.0644 65.7601 7.88916C67.3552 5.99142 68.2305 3.59845 68.2344 1.12601V1.01113L67.826 0.865601C64.7261 4.60553 60.4065 7.14983 55.6172 8.05764" fill="#353535"/>
    <path d="M24.8567 19.6154L24.664 19.5159C24.225 20.2921 23.5842 20.9369 22.8087 21.3829C22.0331 21.8289 21.1513 22.0597 20.2553 22.0511C19.5767 22.0446 18.9033 21.9335 18.2591 21.7218C19.3416 21.4693 20.3805 21.0589 21.3421 20.5039C22.2626 19.9963 23.0763 19.3177 23.7391 18.5049C23.6389 18.39 23.5387 18.2827 23.4462 18.1678C22.814 18.9675 22.028 19.634 21.1339 20.1286C20.0041 20.7847 18.7635 21.2311 17.4729 21.446L17.4189 21.8596C18.3197 22.2665 19.2966 22.4805 20.2861 22.4877C21.2478 22.496 22.1945 22.2509 23.0299 21.7773C23.8653 21.3037 24.5594 20.6186 25.0417 19.7916L24.8567 19.6231" fill="#353535"/>
    <path d="M26.6987 21.1012C26.2152 22.2695 25.9715 23.522 25.9818 24.7853C25.9834 25.141 26.004 25.4964 26.0435 25.85C25.3504 24.9734 24.9563 23.9003 24.9183 22.7862C24.9359 21.9179 25.2034 21.0727 25.689 20.3506L25.3499 20.0672C24.8053 20.8714 24.5105 21.8169 24.502 22.7862C24.553 24.2598 25.1613 25.6601 26.2054 26.7078L26.5754 26.5163C26.468 25.9454 26.4138 25.366 26.4135 24.7853C26.4082 23.6078 26.6306 22.4403 27.0686 21.3463L26.6987 21.1012Z" fill="#353535"/>
    <path d="M23.3 17.9379L23.0379 17.6162C21.5417 18.6649 19.7659 19.2486 17.9355 19.2936C16.9215 19.2986 15.9175 19.0926 14.9884 18.6889C14.0592 18.2853 13.2253 17.6929 12.5403 16.9498C13.7574 17.1818 14.993 17.3049 16.2322 17.3175C18.2388 17.367 20.2235 16.8943 21.9897 15.9465C21.9203 15.8163 21.8509 15.6937 21.7893 15.5635C20.0786 16.4663 18.1605 16.9099 16.2245 16.8503C14.8197 16.835 13.42 16.6785 12.047 16.383L11.8235 16.7201C12.5398 17.6533 13.4652 18.4079 14.5261 18.9237C15.587 19.4396 16.7544 19.7026 17.9355 19.6919C19.8716 19.6521 21.7512 19.0357 23.3308 17.9226" fill="#353535"/>
    <path d="M21.6504 15.2649C21.5887 15.1347 21.527 14.9968 21.4731 14.859C20.2592 15.1167 19.0224 15.2527 17.7812 15.2649C15.5782 15.362 13.4065 14.7199 11.6151 13.442C10.5014 12.5958 9.6276 11.4769 9.07937 10.1945C12.1123 11.9117 15.5469 12.8046 19.0375 12.7834C19.6156 12.7834 20.2013 12.7834 20.7871 12.7144C20.7871 12.5689 20.7254 12.431 20.7023 12.2855C20.1397 12.3238 19.5847 12.3468 19.0375 12.3468C15.4251 12.3609 11.8795 11.3799 8.79422 9.51282L8.47821 9.77323C9.03184 11.3642 10.0419 12.7593 11.3839 13.7867C13.2427 15.1143 15.4938 15.7881 17.7812 15.7015C19.0775 15.6886 20.3689 15.5423 21.6349 15.2649" fill="#353535"/>
    <path d="M55.0623 20.1285C54.1748 19.6473 53.3895 18.9996 52.75 18.2214C52.6498 18.3363 52.5496 18.4435 52.4572 18.5584C53.1156 19.3461 53.9153 20.0057 54.8156 20.5038C55.7772 21.0588 56.8163 21.4692 57.8988 21.7216C57.2542 21.9334 56.5812 22.0445 55.9026 22.051C55.0095 22.0581 54.131 21.8283 53.3573 21.3853C52.5837 20.9423 51.943 20.3022 51.5014 19.5311C51.3935 19.6307 51.2933 19.7379 51.1777 19.8375C51.6605 20.6531 52.352 21.3272 53.1818 21.7913C54.0116 22.2554 54.9503 22.493 55.9026 22.4799C56.8915 22.4709 57.8682 22.257 58.7696 21.8518L58.754 21.4459C57.4531 21.2387 56.2012 20.7947 55.0623 20.1362" fill="#353535"/>
    <path d="M50.5766 20.3736C51.041 21.0858 51.2923 21.9146 51.3011 22.7632C51.269 23.8772 50.8772 24.9513 50.1835 25.8269C50.223 25.4734 50.2437 25.118 50.2452 24.7623C50.2546 23.5131 50.0162 22.2742 49.5438 21.1165L49.1738 21.3692C49.6008 22.4498 49.8153 23.6015 49.8059 24.7623C49.8094 25.3432 49.7551 25.923 49.644 26.4933L50.0139 26.6848C51.0687 25.6328 51.6852 24.2242 51.7404 22.7403C51.7281 21.7893 51.442 20.8616 50.9157 20.0672L50.5766 20.3506" fill="#353535"/>
    <path d="M60.0026 16.8503C58.0894 16.8946 56.1968 16.4488 54.5073 15.5559C54.4457 15.6861 54.3762 15.8163 54.3069 15.9465C56.0592 16.8688 58.0203 17.3277 60.0026 17.2793C61.2395 17.2669 62.4725 17.1439 63.687 16.9116C63.0034 17.6566 62.1699 18.2503 61.2401 18.654C60.3107 19.0578 59.3062 19.2627 58.2917 19.2553C56.4832 19.2152 54.7268 18.645 53.2433 17.6162L52.9735 17.9609C54.5346 19.0496 56.3851 19.6545 58.2917 19.6995C59.4717 19.7097 60.6378 19.4464 61.6975 18.9305C62.7566 18.4147 63.6809 17.6605 64.3963 16.7278L64.1723 16.3908C62.8023 16.6862 61.405 16.8427 60.0026 16.858" fill="#353535"/>
    <path d="M57.1902 12.3468C56.6659 12.3468 56.1338 12.3468 55.6484 12.2931L55.5559 12.7221C56.1188 12.7603 56.6737 12.7834 57.2286 12.7834C60.7058 12.7968 64.1261 11.9042 67.148 10.1945C66.5998 11.4769 65.7262 12.5958 64.6124 13.442C62.8207 14.7188 60.6489 15.3608 58.446 15.2649C57.2314 15.2547 56.0202 15.1239 54.8314 14.8743L54.6542 15.2803C55.9009 15.5471 57.1712 15.6882 58.446 15.7015C60.7336 15.7864 62.9839 15.1127 64.8437 13.7867C66.183 12.7572 67.1926 11.3628 67.7491 9.77323L67.4332 9.51282C64.3478 11.3799 60.8021 12.3609 57.1902 12.3468Z" fill="#353535"/>
    <path d="M42.3372 36.7644C42.7535 37.2783 42.9769 37.9201 42.9691 38.5797C42.9745 39.0837 42.8499 39.5807 42.607 40.0232C42.3641 40.4657 42.0111 40.8389 41.5818 41.1073C41.6111 40.853 41.6265 40.5973 41.628 40.3414C41.6443 39.3387 41.3773 38.3515 40.8573 37.4921L40.4565 37.6836C40.951 38.4808 41.1977 39.4054 41.1656 40.3414C41.1641 40.7238 41.1306 41.1056 41.0654 41.4825L41.3737 41.7124C41.9766 41.4427 42.4873 41.0042 42.8433 40.4505C43.1992 39.8968 43.3849 39.252 43.3776 38.595C43.3741 37.83 43.1015 37.0903 42.6069 36.504L42.3372 36.7644Z" fill="#353535"/>
    <path d="M44.9503 34.773C45.4933 35.3256 45.7952 36.0687 45.7904 36.8411C45.7922 37.2579 45.6996 37.6699 45.5194 38.0464C45.3393 38.4229 45.0763 38.7544 44.7499 39.0162C44.7499 38.9396 44.7499 38.8707 44.7499 38.8018C44.744 37.7033 44.3575 36.6403 43.6554 35.7917L43.4319 35.9449L43.3163 36.0598C43.9519 36.8354 44.305 37.8017 44.3183 38.8018C44.3215 39.0162 44.2956 39.23 44.2412 39.4375L44.5649 39.675C45.0724 39.3928 45.4954 38.9817 45.7907 38.4838C46.0858 37.9859 46.2427 37.419 46.2451 36.8411C46.2462 35.9539 45.8976 35.1015 45.274 34.4667L44.9503 34.7577" fill="#353535"/>
    <path d="M47.1009 32.3756C47.4688 32.9156 47.6623 33.5541 47.6558 34.2062C47.6483 34.8092 47.5061 35.403 47.2397 35.9448C47.0896 35.0811 46.6845 34.2814 46.0758 33.6471L45.7752 33.9688C46.4511 34.6854 46.8521 35.6153 46.9082 36.5958L47.309 36.6878C47.805 35.9449 48.0728 35.0747 48.0798 34.1832C48.0726 33.3792 47.802 32.5995 47.309 31.962L47.0547 32.3527" fill="#353535"/>
    <path d="M38.5375 7.07721C38.5103 7.21611 38.4948 7.35701 38.4913 7.49847C38.4903 7.79537 38.5507 8.08926 38.6687 8.36198C38.7867 8.6347 38.9598 8.88046 39.1773 9.08398L39.4779 8.76992C39.304 8.60646 39.1657 8.40928 39.0716 8.1906C38.9774 7.97193 38.9295 7.73637 38.9306 7.49847C38.9308 7.36692 38.9463 7.23588 38.9769 7.10785H38.5375" fill="#353535"/>
    <path d="M30.4295 6.28837C30.3033 6.18535 30.2003 6.0571 30.1273 5.91196C30.0542 5.76683 30.0127 5.60799 30.0055 5.44586V5.36162C30.048 5.05552 30.1899 4.77167 30.4098 4.55319C30.6296 4.33473 30.9153 4.19365 31.2233 4.15145C31.0831 4.46503 31.0096 4.80402 31.0075 5.14717C31.0062 5.46887 31.0885 5.78544 31.2465 6.06629C31.4309 6.04735 31.6169 6.04735 31.8014 6.06629C31.6833 5.94138 31.5912 5.79452 31.5304 5.63417C31.4695 5.47383 31.4411 5.30312 31.4468 5.13185C31.4616 4.90537 31.5137 4.68286 31.601 4.47314C31.6288 4.39178 31.6623 4.31245 31.7012 4.2357C31.6997 4.21531 31.6997 4.19483 31.7012 4.17443L31.5008 3.95997L31.416 3.82977L31.285 3.69189C30.8491 3.72761 30.4397 3.91439 30.1284 4.21959C29.8171 4.5248 29.6235 4.92901 29.5816 5.36162V5.43823C29.5882 5.65573 29.6403 5.86951 29.7345 6.06596C29.8288 6.26241 29.963 6.43729 30.1288 6.57942C30.21 6.46209 30.315 6.36292 30.4372 6.28837" fill="#353535"/>
    <path d="M32.8573 4.21278L32.6723 4.38894C32.74 4.59167 32.7763 4.80343 32.7802 5.01702C32.7782 5.23587 32.7233 5.45103 32.62 5.64436C32.5167 5.83764 32.3681 6.00339 32.1867 6.12757C32.3562 6.12757 32.5258 6.20418 32.7031 6.25014C33.0324 5.91675 33.2177 5.46881 33.2195 5.00168C33.2217 4.78735 33.1958 4.57364 33.1424 4.36597C33.3992 4.44902 33.6283 4.59994 33.8053 4.80254C33.9868 5.0173 34.0876 5.28801 34.0905 5.56848V5.65272C34.0674 5.8353 34.0008 6.00974 33.8962 6.16161C33.7917 6.31349 33.6522 6.43835 33.4892 6.52587C33.6434 6.58716 33.7899 6.65608 33.944 6.73269C34.1054 6.6061 34.2397 6.44877 34.3389 6.26987C34.4382 6.09097 34.5005 5.89419 34.5221 5.691V5.57611C34.5219 5.19219 34.3854 4.82062 34.1367 4.52681C33.8725 4.23374 33.5263 4.02572 33.1424 3.92938L32.9035 4.15917L32.8573 4.21278Z" fill="#353535"/>
    <path d="M32.2558 3.06369C32.289 3.02893 32.3281 3.00039 32.3714 2.97944H32.4177C32.518 3.10817 32.5673 3.26892 32.5565 3.43133V3.54622L32.9958 3.59218C32.9958 3.53856 32.9958 3.48494 32.9958 3.43133C33.0033 3.33957 33.0033 3.24736 32.9958 3.1556C32.9752 3.05222 32.9415 2.95186 32.8956 2.85689C32.8519 2.77407 32.7916 2.70108 32.7183 2.64243C32.6438 2.57998 32.5528 2.5401 32.4562 2.52754H32.3714C32.3356 2.52321 32.2994 2.52321 32.2636 2.52754C32.2016 2.54249 32.142 2.56568 32.0863 2.59647C31.9607 2.6891 31.8622 2.81338 31.8011 2.95646C31.7287 3.1082 31.6843 3.27164 31.6701 3.43899L32.1017 3.47729C32.1156 3.32835 32.1687 3.18568 32.2558 3.06369Z" fill="#353535"/>
    <path d="M39.9016 37.9135L39.5239 38.0743C39.6393 38.5222 39.6962 38.983 39.6935 39.4453C39.6976 40.1328 39.5667 40.8144 39.3081 41.452C39.066 42.0703 38.6449 42.6034 38.098 42.9839C37.5956 42.6292 37.2117 42.1329 36.9958 41.5593C36.7593 40.9539 36.6415 40.3091 36.649 39.6598C36.6489 39.1432 36.7136 38.6286 36.8417 38.1279L36.4409 37.9441C36.2925 38.5039 36.22 39.0809 36.2251 39.6598C36.2159 40.3637 36.3414 41.0628 36.595 41.7201C36.8712 42.4239 37.3686 43.0202 38.0132 43.4205H38.2444C38.927 42.9965 39.4541 42.3654 39.7474 41.6205C40.0202 40.9277 40.1563 40.1892 40.1482 39.4453C40.1516 38.928 40.0842 38.4127 39.9478 37.9135H39.9016Z" fill="#353535"/>
    <path d="M34.7455 40.303C34.7455 40.5482 34.7455 40.8086 34.7918 41.069C34.3625 40.8024 34.0094 40.4306 33.7665 39.9893C33.5236 39.548 33.3989 39.0521 33.4044 38.5491C33.4056 37.9002 33.6285 37.271 34.0364 36.7644L33.6665 36.5424C33.2138 37.1289 32.9699 37.8482 32.9728 38.5874C32.9662 39.2452 33.1531 39.8906 33.5104 40.4444C33.8678 40.9982 34.3801 41.4362 34.9844 41.7047L35.285 41.4672C35.2225 41.0926 35.1916 40.7134 35.1925 40.3337C35.1799 39.6383 35.3002 38.947 35.5471 38.2963C35.6191 38.1206 35.7014 37.9492 35.7937 37.7831L35.8554 37.6912L35.4546 37.5304C34.9618 38.3819 34.7138 39.3516 34.7378 40.3337" fill="#353535"/>
    <path d="M33.0189 36.1059L32.6644 35.8531C31.9897 36.6912 31.6154 37.7288 31.6007 38.802C31.6007 38.8785 31.6007 38.9474 31.6007 39.0164C31.2749 38.7557 31.0122 38.4256 30.832 38.0504C30.6519 37.6752 30.559 37.2645 30.5602 36.8489C30.5593 36.1084 30.8338 35.3937 31.331 34.8421L31.0073 34.551C30.4326 35.1802 30.1139 35.9992 30.1132 36.8489C30.1148 37.4242 30.2689 37.9889 30.5597 38.4864C30.8506 38.9838 31.2681 39.3964 31.7703 39.6828L32.094 39.4377C32.0423 39.2297 32.0164 39.0162 32.0169 38.802C32.0335 37.8216 32.3748 36.874 32.9881 36.1059" fill="#353535"/>
    <path d="M30.5292 34.0607L30.2287 33.7467C29.6659 34.3675 29.2871 35.131 29.1341 35.9526C28.8708 35.41 28.7313 34.8163 28.7256 34.2139C28.7196 33.6029 28.888 33.0027 29.2113 32.483C29.1188 32.3528 29.034 32.2225 28.9492 32.0847C28.51 32.7083 28.2782 33.4528 28.2863 34.2139C28.2906 35.1058 28.5587 35.9767 29.0571 36.7185L29.4579 36.619C29.5168 35.8519 29.7686 35.1119 30.1901 34.4667C30.29 34.3116 30.4035 34.1654 30.5292 34.0301" fill="#353535"/>
    <path d="M32.2096 7.83547C32.193 7.86567 32.1684 7.89085 32.1386 7.9084C32.1087 7.9259 32.0747 7.93509 32.04 7.93503C31.9886 7.93531 31.9389 7.9167 31.9005 7.88277C31.8621 7.84884 31.8376 7.80199 31.8319 7.75118C31.9604 7.76622 32.087 7.79447 32.2096 7.83547ZM31.3849 7.83547C31.4036 7.97264 31.4663 8.10017 31.5638 8.19912C31.6613 8.29807 31.7882 8.36309 31.9259 8.38459C32.0635 8.4061 32.2045 8.38292 32.3278 8.31851C32.4511 8.25405 32.5502 8.15182 32.6104 8.02691C32.9109 8.15711 33.227 8.31796 33.5276 8.44053L33.6971 8.04223C33.4042 7.91971 33.0729 7.75118 32.7337 7.60565C32.4111 7.44803 32.0598 7.35689 31.7009 7.33761C31.5163 7.33538 31.3338 7.37739 31.1691 7.46012C30.9885 7.55985 30.835 7.70181 30.722 7.87375L31.092 8.1112C31.1577 7.99799 31.2538 7.90517 31.3694 7.8431" fill="#353535"/>
    <path d="M30.9228 10.2405C31.0799 10.2427 31.2338 10.2849 31.3698 10.3631L31.601 9.95717C31.401 9.84485 31.1757 9.78424 30.9459 9.78101C30.607 9.80435 30.2789 9.90954 29.9902 10.0874C29.7572 10.2316 29.493 10.3182 29.2194 10.3401C29.0549 10.3385 28.8934 10.2964 28.7492 10.2176L28.5566 10.6082C28.7618 10.7127 28.9888 10.7678 29.2194 10.769C29.5629 10.7504 29.8965 10.6479 30.1906 10.4703C30.4246 10.3285 30.6883 10.242 30.9613 10.2176" fill="#353535"/>
    <path d="M37.9594 0.635717C37.9856 0.571612 38.0221 0.512131 38.0673 0.459554H38.1135C38.1896 0.551449 38.2448 0.65856 38.2754 0.773587C38.3279 0.957951 38.3538 1.14877 38.3525 1.34037H38.7918C38.8088 1.04158 38.7669 0.742382 38.6685 0.459554C38.6147 0.345479 38.5446 0.239711 38.4604 0.145526C38.3658 0.0577813 38.2428 0.00621771 38.1135 0C37.9839 0.00485829 37.8606 0.0566113 37.7667 0.145526C37.6328 0.288087 37.5373 0.461983 37.4893 0.651038C37.4252 0.875194 37.394 1.10737 37.3968 1.34037H37.8284C37.8234 1.09908 37.868 0.859326 37.9594 0.635717Z" fill="#353535"/>
    <path d="M37.0653 9.09162C37.2849 8.88887 37.4604 8.64362 37.581 8.37095C37.7016 8.09829 37.7648 7.804 37.7667 7.50615C37.767 7.36191 37.7514 7.21811 37.7204 7.07721H37.2811C37.3121 7.20513 37.3276 7.33628 37.3273 7.46788C37.3276 7.70556 37.2792 7.94084 37.1851 8.1594C37.0911 8.37797 36.9533 8.57526 36.7801 8.73928L37.0653 9.09162Z" fill="#353535"/>
    <path d="M28.2247 7.8737C28.1603 8.04263 28.1264 8.22153 28.1246 8.40221C28.1367 8.68262 28.2201 8.95545 28.367 9.19519C28.5139 9.43493 28.7195 9.63377 28.9647 9.77322L29.2653 9.71194C29.3962 9.52262 29.5726 9.36879 29.7786 9.26444C29.9845 9.16009 30.2134 9.10855 30.4445 9.11451C30.8069 9.12343 31.1616 9.22076 31.4773 9.39788C31.7127 9.52151 31.9119 9.70358 32.0554 9.92638C31.9358 10.3478 31.6605 10.7089 31.2846 10.9374C30.8604 11.186 30.3742 11.3108 29.8819 11.2974L29.7123 11.642C29.8703 11.8578 30.0763 12.0344 30.3143 12.158C30.5523 12.2815 30.8158 12.3487 31.0842 12.3544C31.3227 12.3541 31.5569 12.2907 31.7625 12.1706C31.8711 12.0937 31.9742 12.0092 32.0708 11.9178C32.2327 11.7723 32.4099 11.5961 32.5949 11.4506C32.7304 11.3269 32.8906 11.2329 33.0651 11.1748H33.2346C33.3233 11.1713 33.4117 11.1865 33.494 11.2195C33.5762 11.2525 33.6505 11.3026 33.7117 11.3664C33.773 11.4301 33.8199 11.5062 33.8493 11.5893C33.8786 11.6726 33.8898 11.761 33.8821 11.8489V11.9025C33.8847 12.0146 33.8663 12.1263 33.8281 12.2318C33.787 12.3627 33.7216 12.4848 33.6354 12.5918H34.1519C34.1892 12.518 34.2202 12.4411 34.2443 12.362C34.2875 12.2201 34.3134 12.0735 34.3214 11.9255V11.8489C34.3255 11.6963 34.2974 11.5446 34.2389 11.4035C34.1805 11.2624 34.0931 11.1349 33.9823 11.0293C33.7738 10.8355 33.4969 10.7309 33.2115 10.7383C33.1271 10.727 33.0416 10.727 32.9572 10.7383C32.6328 10.8422 32.339 11.0236 32.1016 11.2668C31.9706 11.374 31.855 11.4889 31.7471 11.5808C31.6756 11.6562 31.5954 11.7231 31.5082 11.7799C31.3742 11.8628 31.2189 11.9054 31.0611 11.9025C30.8157 11.8958 30.5775 11.8187 30.3752 11.6804C30.7719 11.6331 31.1535 11.4997 31.4927 11.2897C31.7422 11.145 31.9604 10.9528 32.135 10.724C32.3096 10.4954 32.4371 10.2347 32.5101 9.95703V9.8115C32.3346 9.48646 32.0665 9.22004 31.7394 9.0456C31.3598 8.83488 30.9332 8.72167 30.4984 8.71621C30.2355 8.70942 29.9743 8.76006 29.7333 8.86464C29.4922 8.96916 29.2772 9.1251 29.1034 9.32133C28.8989 9.18984 28.746 8.99261 28.6703 8.76262C28.5945 8.53258 28.6005 8.2837 28.6872 8.0575C28.714 7.97649 28.7558 7.90111 28.8105 7.83543C28.9026 7.72216 29.0206 7.63246 29.1547 7.57379C29.2888 7.51518 29.4351 7.48933 29.5813 7.49841C29.751 7.50164 29.9195 7.52738 30.0823 7.57502L30.2364 7.62861H30.275L30.591 7.46008C30.599 7.39227 30.6254 7.32787 30.6675 7.27388C30.7097 7.21989 30.7658 7.17839 30.8299 7.15376C31.0519 7.05258 31.295 7.00534 31.539 7.01587C32.426 7.06846 33.2875 7.33104 34.0516 7.78177C34.5173 8.00797 35.0286 8.12581 35.5469 8.12648H35.7319H35.8398C35.7945 8.19941 35.7402 8.26632 35.6779 8.3256L35.4544 8.42516C35.4017 8.4733 35.345 8.51687 35.2849 8.55537C35.5155 8.76585 35.7294 8.99373 35.9246 9.23703C36.654 10.2096 37.1545 11.3325 37.389 12.5229H37.836C37.6045 11.2337 37.077 10.015 36.2945 8.9613L35.886 8.50177H35.94C36.1851 8.33797 36.3862 8.11712 36.5257 7.85838L36.2252 7.58265C35.9728 7.64288 35.7139 7.67118 35.4544 7.66689C34.976 7.67753 34.5032 7.56399 34.0825 7.33756L34.0208 7.29929C33.8512 7.21499 33.6817 7.13075 33.5198 7.06183H33.4427L33.0728 6.8933L32.8493 6.81675L32.5949 6.74777H32.4484L32.0785 6.67885C31.8822 6.64682 31.6839 6.62893 31.485 6.62526C31.1681 6.61372 30.8532 6.67947 30.5679 6.81675C30.5137 6.84538 30.4621 6.8787 30.4137 6.91631C30.3224 6.99347 30.2466 7.08702 30.1902 7.19204C29.9727 7.1259 29.747 7.08986 29.5196 7.08479C29.3101 7.08016 29.1022 7.12251 28.9114 7.2087C28.7205 7.29489 28.5517 7.42269 28.4175 7.58265C28.3341 7.68589 28.2689 7.80244 28.2247 7.9273" fill="#353535"/>
    <path d="M44.5496 4.23571C44.6927 4.52147 44.7691 4.83564 44.7731 5.15485C44.7873 5.51264 44.66 5.86175 44.4186 6.12756C44.603 6.10862 44.789 6.10862 44.9735 6.12756C45.129 5.84615 45.2087 5.52947 45.2047 5.20844C45.2019 4.92722 45.1551 4.64815 45.066 4.38123C45.066 4.31996 45.012 4.26634 44.9889 4.21273C45.2964 4.24019 45.5861 4.36765 45.8132 4.57537C46.0404 4.78308 46.1922 5.05946 46.2452 5.3616V5.43821C46.238 5.60034 46.1965 5.75912 46.1235 5.90432C46.0504 6.04945 45.9475 6.17771 45.8214 6.28072C45.9467 6.35092 46.0526 6.45093 46.1296 6.57177C46.2973 6.43121 46.4329 6.25671 46.5273 6.05987C46.6216 5.86309 46.6726 5.64853 46.6768 5.43058V5.3616C46.6249 4.93729 46.427 4.54384 46.1165 4.24793C45.8061 3.95202 45.4023 3.77182 44.9735 3.73785L44.8116 3.82977L44.7037 3.95998L44.5034 4.17444V4.23571" fill="#353535"/>
    <path d="M41.7286 5.69858C41.7502 5.90177 41.8125 6.09855 41.9118 6.27745C42.011 6.45634 42.1453 6.61368 42.3067 6.74026C42.4608 6.66366 42.615 6.59474 42.7692 6.53345C42.6062 6.44593 42.4667 6.32102 42.3622 6.16919C42.2576 6.01732 42.191 5.84288 42.1679 5.6603V5.576C42.1708 5.29559 42.2716 5.02488 42.4531 4.8101C42.6301 4.6075 42.8593 4.45658 43.116 4.37353C43.0534 4.58511 43.0197 4.80408 43.0158 5.02454C43.015 5.2562 43.0603 5.48569 43.1489 5.69991C43.2375 5.91413 43.3678 6.10886 43.5322 6.27305C43.7018 6.22708 43.879 6.18112 44.0409 6.15047C43.8593 6.0235 43.7112 5.85485 43.6092 5.65885C43.5072 5.46279 43.4543 5.24523 43.4551 5.02454C43.459 4.811 43.4953 4.59924 43.563 4.3965L43.378 4.22034L43.3164 4.16673L43.0697 3.93695C42.7015 4.04402 42.3706 4.25089 42.114 4.53437C41.8675 4.82892 41.7337 5.2006 41.7363 5.58369V5.69858H41.7286Z" fill="#353535"/>
    <path d="M43.6629 3.54606V3.43117C43.6575 3.30416 43.684 3.17782 43.74 3.06352L43.8017 2.97927H43.8479C43.9894 3.11691 44.0723 3.30342 44.0791 3.50011L44.5107 3.46181C44.4935 3.28825 44.4439 3.1194 44.3643 2.96396C44.3643 2.918 44.3258 2.87204 44.3027 2.83375C44.2455 2.75149 44.1752 2.67905 44.0946 2.61929C44.0437 2.58972 43.9893 2.56656 43.9327 2.55036C43.8968 2.54677 43.8607 2.54677 43.8248 2.55036H43.7709C43.6723 2.56426 43.5792 2.6039 43.5011 2.66524C43.3555 2.8012 43.2605 2.98204 43.2313 3.17841C43.2238 3.27017 43.2238 3.36239 43.2313 3.45415C43.2275 3.50769 43.2275 3.56145 43.2313 3.61499L43.6629 3.54606Z" fill="#353535"/>
    <path d="M44.3876 7.75106C44.3837 7.80115 44.3608 7.84795 44.3237 7.88205C44.2865 7.91615 44.2378 7.93503 44.1872 7.93487C44.1514 7.93553 44.116 7.92662 44.0849 7.90913C44.0537 7.89163 44.0278 7.86611 44.0099 7.8353C44.1318 7.79157 44.2586 7.76327 44.3876 7.75106ZM44.1872 8.37144C44.3455 8.37239 44.4985 8.31495 44.6167 8.21026C44.7349 8.10557 44.8097 7.96105 44.8269 7.80466C44.9408 7.86912 45.0363 7.96139 45.1044 8.07276L45.4666 7.8353C45.3586 7.66203 45.2073 7.51952 45.0273 7.42168C44.8632 7.33716 44.6803 7.29504 44.4955 7.29917C44.134 7.31761 43.78 7.40881 43.455 7.56721C43.1235 7.71273 42.7922 7.88127 42.4993 8.00378L42.6611 8.40209C42.9694 8.27951 43.2777 8.11872 43.586 7.98846C43.6367 8.10062 43.719 8.19578 43.8229 8.26235C43.9269 8.32899 44.0481 8.3642 44.1718 8.36381" fill="#353535"/>
    <path d="M47.0155 10.363C46.7424 10.3389 46.4787 10.2523 46.2448 10.1103C45.9592 9.93159 45.6334 9.82629 45.2967 9.80389C45.0669 9.80713 44.8417 9.86774 44.6416 9.98006L44.842 10.363C44.9806 10.2845 45.1371 10.2423 45.2967 10.2405C45.5702 10.2626 45.8344 10.3493 46.0675 10.4932C46.3644 10.6705 46.7005 10.773 47.0463 10.7919C47.2766 10.7882 47.5031 10.7332 47.7092 10.6311L47.5165 10.2405C47.372 10.3185 47.2107 10.3605 47.0463 10.363" fill="#353535"/>
    <path d="M45.806 6.89348L45.6596 6.79386C45.3742 6.65664 45.0593 6.5909 44.7424 6.60243C44.5436 6.60611 44.3452 6.62399 44.1489 6.65603L43.779 6.72494H43.6325L43.3782 6.79386L43.1624 6.89348L42.7539 7.05433H42.6768C42.5149 7.12325 42.3454 7.20749 42.1758 7.29173L42.1064 7.33006C41.6827 7.55581 41.2075 7.66925 40.7268 7.65938C40.4674 7.66278 40.2085 7.63448 39.956 7.57514L39.7017 7.88152C39.7732 8.01874 39.8641 8.1451 39.9715 8.25681C40.0618 8.35938 40.1655 8.44958 40.2797 8.52491H40.3414C40.195 8.67806 40.064 8.83128 39.9329 8.98444C39.154 10.0401 38.6269 11.258 38.3914 12.546H38.8462C39.0737 11.3534 39.5748 10.229 40.3106 9.26017C40.5035 9.01491 40.7175 8.78682 40.9503 8.5785C40.8889 8.53828 40.8298 8.49482 40.773 8.4483L40.6343 8.32573C40.5672 8.264 40.5077 8.19458 40.457 8.11892H40.5649H40.7422C41.2761 8.1251 41.804 8.0071 42.2837 7.77427C43.0473 7.32242 43.9091 7.05973 44.7964 7.00836C45.0404 6.99783 45.2834 7.04508 45.5055 7.1462C45.5678 7.17344 45.6224 7.21573 45.6641 7.26922C45.7058 7.32276 45.7334 7.38577 45.7444 7.45257L46.0527 7.62111C46.2712 7.52422 46.5072 7.47213 46.7464 7.46789C46.8925 7.45948 47.0386 7.48561 47.1726 7.54417C47.3066 7.60278 47.4247 7.69214 47.5171 7.80491C47.5689 7.8726 47.6105 7.94743 47.6404 8.02704C47.7271 8.25319 47.7331 8.50206 47.6574 8.73211C47.5816 8.96215 47.4287 9.15932 47.2242 9.29081C47.0495 9.0952 46.8345 8.93925 46.5938 8.83351C46.3531 8.72782 46.0923 8.67478 45.8292 8.67806C45.3919 8.68988 44.9638 8.80543 44.5806 9.01508C44.2526 9.18841 43.9842 9.45511 43.8098 9.78098V9.92651C43.9154 10.4844 44.2362 10.9792 44.7039 11.3052C45.0459 11.5153 45.4299 11.6486 45.8292 11.6958C45.6269 11.8341 45.3886 11.9113 45.1432 11.918C44.9877 11.9221 44.8345 11.8794 44.7039 11.7954C44.6139 11.7391 44.5311 11.6723 44.4573 11.5963C44.3031 11.4584 44.1181 11.2746 43.9177 11.1137C43.7267 10.9459 43.5001 10.8229 43.2549 10.7538C43.1705 10.7424 43.0849 10.7424 43.0005 10.7538C42.8591 10.7492 42.7181 10.7726 42.5858 10.8226C42.4535 10.8726 42.3325 10.9481 42.2297 11.0448C42.1214 11.1519 42.0361 11.2798 41.9792 11.4207C41.9222 11.5616 41.8947 11.7125 41.8984 11.8643V11.9409C41.8981 12.0892 41.9215 12.2365 41.9677 12.3775C41.9946 12.4568 42.0281 12.5336 42.0679 12.6073H42.5843C42.5025 12.5002 42.4375 12.3814 42.3916 12.2549C42.3587 12.1483 42.3431 12.0371 42.3454 11.9256V11.872C42.3426 11.7786 42.3589 11.6857 42.3933 11.5988C42.4278 11.5119 42.4797 11.4329 42.5458 11.3664C42.6704 11.2552 42.833 11.195 43.0005 11.198H43.1624C43.4107 11.2896 43.6348 11.4363 43.8175 11.6269L44.1644 11.9409C44.261 12.0323 44.364 12.1168 44.4726 12.1937C44.6783 12.3138 44.9124 12.3773 45.1509 12.3775C45.4192 12.3707 45.6822 12.303 45.92 12.1795C46.1579 12.0561 46.3641 11.8801 46.5229 11.6652L46.3456 11.3205C45.8556 11.335 45.3716 11.2101 44.9505 10.9605C44.5746 10.732 44.2994 10.3709 44.1797 9.94952C44.3198 9.72382 44.5199 9.54091 44.7578 9.42101C45.0732 9.24301 45.4281 9.14562 45.7907 9.13765C46.0207 9.13158 46.2485 9.18312 46.4533 9.28752C46.658 9.39193 46.833 9.54581 46.9622 9.73502L47.2705 9.79631C47.5147 9.65724 47.7188 9.45806 47.8632 9.21799C48.0077 8.97786 48.0875 8.70492 48.0952 8.42529C48.0959 8.24511 48.0646 8.06621 48.0027 7.89684C47.9541 7.76212 47.881 7.63749 47.7869 7.52918C47.6545 7.369 47.4872 7.24086 47.2975 7.15461C47.1079 7.06831 46.9009 7.02619 46.6924 7.03132C46.4643 7.03466 46.238 7.07344 46.0219 7.1462C45.9672 7.03566 45.8882 6.93883 45.7907 6.86284" fill="#353535"/>
    <path d="M27.7469 13.2354V24.8314C27.6361 26.9682 28.0821 29.0972 29.0418 31.0125C29.142 31.1963 29.2499 31.3801 29.3655 31.5716L29.6044 31.9469C31.0381 34.0685 33.5661 36.1978 37.998 37.9058H38.0827H38.1598C42.661 36.1748 45.1968 33.9996 46.6381 31.8473C46.7074 31.7401 46.7845 31.6252 46.8462 31.518C46.9524 31.3546 47.0501 31.1858 47.1391 31.0125C48.0987 29.0972 48.5447 26.9682 48.4339 24.8314V13.2354H27.7469ZM48.0023 22.0971V24.8314C48.1151 26.8959 47.6875 28.9543 46.7614 30.8057C45.5359 33.1035 43.0772 35.5391 38.1136 37.4692C33.1422 35.5391 30.6912 33.1035 29.458 30.8057C28.5355 28.953 28.1082 26.8957 28.2171 24.8314V13.6719H48.0023V22.0971Z" fill="#353535"/>
    <path d="M39.7171 6.66345H39.8096C40.0298 6.71493 40.2461 6.78146 40.457 6.86258L40.7961 6.52556C40.5724 6.43525 40.3433 6.35853 40.1102 6.2958C39.715 6.20548 39.3127 6.1491 38.9078 6.12732C38.6535 6.12732 38.3837 6.12732 38.1371 6.12732C37.8085 6.10681 37.479 6.10681 37.1505 6.12732C36.7652 6.17969 36.384 6.25908 36.0098 6.36471C35.8031 6.42823 35.5998 6.50238 35.4009 6.58685L35.74 6.91617C36.4989 6.6332 37.3034 6.49046 38.1139 6.49492C38.6534 6.49871 39.1909 6.56038 39.7171 6.67878" fill="#353535"/>
    <path d="M40.8499 1.99134C40.4901 1.65925 40.0151 1.47813 39.5242 1.48583C39.3478 1.48774 39.1721 1.50828 39.0001 1.54711L38.8382 1.82284C38.9248 2.10853 38.969 2.40527 38.9693 2.70365C38.9719 3.24533 38.8196 3.7766 38.5299 4.2355C38.4565 4.35586 38.3713 4.46874 38.2756 4.57252L38.6378 4.82527C38.7788 4.6637 38.9004 4.48634 39.0001 4.29678C39.2672 3.808 39.4051 3.25985 39.4009 2.70365C39.3997 2.44567 39.3686 2.18867 39.3084 1.93772H39.5242C39.9028 1.92963 40.2699 2.06678 40.5493 2.32069C40.6809 2.44787 40.7851 2.60042 40.8553 2.769C40.9256 2.93758 40.9604 3.11863 40.9578 3.30108C40.948 3.75795 40.8178 4.20428 40.5801 4.59549C40.345 4.96054 40.0876 5.31099 39.8094 5.64483L40.0792 5.70606C40.1422 5.72188 40.2041 5.74239 40.2641 5.76735C40.5081 5.46287 40.7321 5.14307 40.9346 4.80995C41.2118 4.346 41.3606 3.81757 41.3663 3.2781C41.3722 3.04007 41.3294 2.80332 41.2407 2.58216C41.1519 2.361 41.019 2.16001 40.8499 1.99134Z" fill="#353535"/>
    <path d="M36.0095 5.72153C36.0982 5.69407 36.1882 5.67106 36.2792 5.65261C36.0002 5.31136 35.7428 4.95323 35.5085 4.58029C35.2724 4.19118 35.1423 3.74775 35.1308 3.29354C35.1251 3.10773 35.1593 2.92283 35.231 2.75115C35.3028 2.57948 35.4105 2.42495 35.547 2.29783C35.8264 2.04393 36.1936 1.90678 36.5721 1.91487H36.7879C36.7253 2.16556 36.6917 2.42253 36.6877 2.6808C36.6881 3.30508 36.8615 3.9172 37.1887 4.45009C37.2692 4.57201 37.3594 4.68728 37.4585 4.79475L37.8131 4.59561C37.3664 4.07749 37.1228 3.41664 37.127 2.73441C37.1273 2.43603 37.1715 2.13929 37.2581 1.8536L37.0962 1.53191C36.9242 1.49309 36.7485 1.47255 36.5721 1.47063C36.0812 1.46294 35.6062 1.64406 35.2465 1.97615C35.0676 2.14466 34.9254 2.34783 34.8286 2.5731C34.7318 2.79836 34.6825 3.04095 34.6838 3.28588C34.6918 3.82606 34.8433 4.35454 35.1231 4.81773C35.3335 5.15921 35.5626 5.48904 35.8091 5.80577L35.994 5.74449" fill="#353535"/>
    <path d="M33.4117 24.5786L38.1134 21.5914L42.8303 24.5939L47.1312 27.3282L47.2005 26.7997L42.8303 24.0194L38.1134 21.0093L33.4117 24.0041L29.0185 26.8074C29.0185 26.9835 29.057 27.1597 29.0879 27.3436L33.4117 24.5786Z" fill="#353535"/>
    <path d="M42.8305 27.7264L38.1135 24.7241L34.4602 27.0218L33.4119 27.6882L29.8665 29.94C29.9281 30.0855 30.0052 30.2387 30.0823 30.3842L33.4119 28.2703L38.1135 25.2755L42.8305 28.3392L46.137 30.4378C46.2141 30.2923 46.2835 30.1468 46.3528 30.0013L42.8305 27.7264Z" fill="#353535"/>
    <path fill-rule="evenodd" clip-rule="evenodd" d="M40.7263 31.1578L39.1386 30.7748L39.9941 29.3962L39.9402 29.3349L38.5374 30.185L38.1597 28.5995H38.0827L37.6973 30.185L36.3022 29.3272L36.2483 29.3808L37.0961 30.7748L35.5084 31.1501V31.2267L37.0961 31.6097L36.2252 32.996L36.2791 33.0496L37.6973 32.1688L38.075 33.7542H38.1521L38.5374 32.1688L39.9325 33.0266L39.9865 32.973L39.1309 31.579L40.7263 31.2037V31.1578Z" fill="#353535"/>
</svg>
